<?xml version="1.0" encoding="UTF-8"?>
<svg version="1.1" viewBox="0 0 25 25" xmlns="http://www.w3.org/2000/svg">
<g id="social-instagram" transform="translate(-15 -15)" fill="#fff">
<g transform="translate(15 15)">
<path d="m22.475 20.109c0 1.2833-1.0438 2.325-2.3277 2.325h-14.901c-1.284 0-2.327-1.0417-2.327-2.325v-9.9376h3.6258c-0.31239 0.77118-0.48983 1.6112-0.48983 2.4923 0 3.6602 2.9795 6.6363 6.6417 6.6363 3.6623 0 6.6411-2.9761 6.6411-6.6363 0-0.88116-0.17812-1.7212-0.48916-2.4923h3.6258v9.9376zm-13.244-9.9376c0.7759-1.0761 2.0389-1.7812 3.4659-1.7812 1.427 0 2.6887 0.70506 3.4653 1.7812 0.5067 0.70236 0.81166 1.5606 0.81166 2.4923 0 2.356-1.9195 4.2708-4.2769 4.2708-2.3581 0-4.2756-1.9148-4.2756-4.2708 0-0.93176 0.30361-1.79 0.80964-2.4923zm12.262-6.8455l0.53639-0.0026988v4.113l-4.1028 0.015518-0.014843-4.115 3.5813-0.010795zm-1.346-2.7987h-14.901c-2.5875 0-4.6939 2.1037-4.6939 4.6905v14.891c0 2.5868 2.1064 4.6905 4.6939 4.6905h14.901c2.5875 0 4.6946-2.1037 4.6946-4.6905v-14.891c0-2.5868-2.1071-4.6905-4.6946-4.6905z"/>
</g>
</g>
</svg>
