<?xml version="1.0" encoding="UTF-8"?>
<svg version="1.1" viewBox="0 0 26 25" xmlns="http://www.w3.org/2000/svg">
<g id="social-pinterest" transform="translate(-15 -15)" fill="#fff">
<g transform="translate(15 15)">
<path d="m13.001 0.84923c-6.7746 0-12.269 5.3688-12.269 11.994 0 4.9117 3.022 9.1292 7.3449 10.981-0.035512-0.83284-0.0061463-1.8389 0.21307-2.7517 0.23561-0.97275 1.5776-6.5361 1.5776-6.5361s-0.39132-0.76621-0.39132-1.8949c0-1.7803 1.0544-3.1062 2.3663-3.1062 1.1152 0 1.6554 0.81885 1.6554 1.7996 0 1.098-0.71639 2.735-1.0838 4.2541-0.30732 1.2726 0.6522 2.312 1.9354 2.312 2.3254 0 3.8906-2.9183 3.8906-6.3749 0-2.6284-1.8118-4.5946-5.1049-4.5946-3.7213 0-6.0398 2.7111-6.0398 5.7406 0 1.0447 0.31551 1.7843 0.8079 2.3506 0.22741 0.26651 0.25883 0.37311 0.17756 0.67293-0.059415 0.21987-0.19463 0.75289-0.25063 0.95943-0.081951 0.30648-0.33259 0.41309-0.61395 0.29982-1.7141-0.6796-2.5118-2.5185-2.5118-4.5793 0-3.4073 2.938-7.4942 8.7674-7.4942 4.6842 0 7.7662 3.3154 7.7662 6.8719 0 4.7085-2.675 8.2198-6.6203 8.2198-1.3235 0-2.5699-0.69958-2.9953-1.4924 0 0-0.71298 2.7584-0.8639 3.298-0.25883 0.91945-0.76898 1.8456-1.2347 2.5651 1.1029 0.31981 2.2694 0.49304 3.4768 0.49304 6.7753 0 12.267-5.3701 12.267-11.994 0-6.6247-5.4921-11.994-12.267-11.994"/>
</g>
</g>
</svg>
