<?xml version="1.0" encoding="utf-8"?>
<!-- Generator: Adobe Illustrator 22.1.0, SVG Export Plug-In . SVG Version: 6.00 Build 0)  -->
<svg version="1.1" id="rccl-logo" xmlns="http://www.w3.org/2000/svg" xmlns:xlink="http://www.w3.org/1999/xlink" x="0px" y="0px"
	 viewBox="0 0 33.7 37.3" style="enable-background:new 0 0 33.7 37.3;" xml:space="preserve">
<style type="text/css">
	.st0{fill:#FEFEFE;}
</style>
<g id="logo-crownanchor" transform="translate(62.000000, 2.000000)">
	<path id="Fill-22_2_" class="st0" d="M-45.1-1c1.7,1.6,3.5,3.4,5.2,5.1l-1.9,2.5v0.1l5,2.3l3.4-2.4l-2-2.3V4.2
		c2.1-1.5,3.9-3,5.9-4.4l-1,10.4h-29.3l-1-10.4c2,1.4,3.8,2.8,5.9,4.4v0.2l-2,2.3l3.4,2.4l5-2.3V6.6l-1.9-2.5
		C-48.8,2.4-46.9,0.6-45.1-1C-45.2-1-45.1-1-45.1-1z"/>
	<path id="Fill-23_2_" class="st0" d="M-30.8,12l-0.3,3.5h-10.8v11.9h5.3c1.2,0,2.4-1.3,2.2-2.1c-0.3-1.2-1.3-2-2.3-2.6
		c0.2,0,3.8-2.7,5.5-3.9c-0.1,0.7-1.3,10.5-1.3,10.7l-12.6,4.8h-0.2l-12.4-4.8c0-0.2-1.2-9.9-1.3-10.7c1.7,1.2,5.3,3.9,5.5,3.9
		c-1,0.6-2,1.4-2.3,2.6c-0.3,0.8,1,2.1,2.2,2.1h5.3V15.5h-10.8l-0.3-3.5C-59.4,12-30.8,12-30.8,12z"/>
</g>
</svg>
