<?xml version="1.0" encoding="utf-8"?>
<!-- Generator: Adobe Illustrator 26.0.2, SVG Export Plug-In . SVG Version: 6.00 Build 0)  -->
<svg version="1.1" id="Layer_1" xmlns="http://www.w3.org/2000/svg" xmlns:xlink="http://www.w3.org/1999/xlink" x="0px" y="0px"
	 width="20.798px" height="25px" viewBox="0 0 20.798 25" enable-background="new 0 0 20.798 25" xml:space="preserve">
<path fill="#FFFFFF" d="M11.062,0.662c1.54,0,3.044,0,4.559,0c0.023,0.404,0.031,0.804,0.073,1.201
	c0.063,0.597,0.217,1.171,0.54,1.685c0.55,0.874,1.373,1.255,2.379,1.271c0.336,0.005,0.672-0.038,1.036-0.062
	c0.003,0.05,0.013,0.125,0.013,0.2c0.001,1.376-0.004,2.753,0.005,4.129c0.001,0.193-0.051,0.257-0.246,0.282
	c-1.207,0.156-2.371-0.018-3.509-0.422c-0.074-0.026-0.148-0.054-0.267-0.098c0,0.115,0,0.206,0,0.297c0,2.495,0.001,4.99,0,7.486
	c-0.002,3.657-2.727,6.767-6.351,7.251c-4.051,0.542-7.742-2.313-8.249-6.38c-0.491-3.939,2.283-7.577,6.213-8.139
	c0.924-0.132,1.845-0.094,2.757,0.121c0.118,0.028,0.18,0.063,0.18,0.201c-0.004,1.625-0.003,3.251-0.003,4.908
	c-0.065-0.04-0.109-0.063-0.149-0.093c-0.892-0.678-1.866-0.824-2.88-0.351c-1.024,0.478-1.549,1.328-1.588,2.455
	c-0.047,1.357,1.073,2.615,2.419,2.745c1.455,0.141,2.765-0.815,3.01-2.202c0.033-0.189,0.048-0.384,0.048-0.575
	c0.003-3.839,0.001-7.679,0.002-11.518c0-1.376,0.005-2.753,0.007-4.129C11.062,0.845,11.062,0.766,11.062,0.662z"/>
</svg>
