<svg width="25" height="26" viewBox="0 0 25 26" fill="none" xmlns="http://www.w3.org/2000/svg">
<g id="entypo:chat">
<path id="Vector" d="M22.0796 21.2931C22.3565 21.5815 22.512 21.9727 22.512 22.3806C22.512 22.7885 22.3565 23.1797 22.0796 23.4681C21.8027 23.7566 21.4271 23.9186 21.0356 23.9186C20.644 23.9186 20.2684 23.7566 19.9915 23.4681L12.1933 15.3424L4.39257 23.4656C4.11568 23.754 3.74013 23.916 3.34854 23.916C2.95696 23.916 2.58141 23.754 2.30452 23.4656C2.02763 23.1771 1.87207 22.7859 1.87207 22.378C1.87207 21.9701 2.02763 21.5789 2.30452 21.2905L10.1052 13.1673L2.30698 5.04159C2.03008 4.75316 1.87453 4.36197 1.87453 3.95407C1.87453 3.54617 2.03008 3.15497 2.30698 2.86654C2.58387 2.57811 2.95942 2.41607 3.351 2.41607C3.74259 2.41607 4.11813 2.57811 4.39503 2.86654L12.1933 10.9923L19.994 2.86526C20.2709 2.57683 20.6464 2.41479 21.038 2.41479C21.4296 2.41479 21.8051 2.57683 22.082 2.86526C22.3589 3.15369 22.5145 3.54489 22.5145 3.95279C22.5145 4.36069 22.3589 4.75189 22.082 5.04032L14.2813 13.1673L22.0796 21.2931Z" fill="white"/>
</g>
</svg>
