<svg width="42" height="42" viewBox="0 0 42 42" fill="none" xmlns="http://www.w3.org/2000/svg">
<g id="entypo:chat" clip-path="url(#clip0_40_208)">
<path id="Vector" d="M12.4857 25.4372V12.7272H4.6957C2.4407 12.7272 0.595703 14.5722 0.595703 16.8272V29.1272C0.595703 31.3822 2.4407 33.2272 4.6957 33.2272H6.7457V39.3772L12.8957 33.2272H23.1457C25.4007 33.2272 27.2457 31.3822 27.2457 29.1272V25.3962C27.111 25.4251 26.9735 25.4395 26.8357 25.4392H12.4857V25.4372ZM37.4957 2.47717H19.0457C16.7907 2.47717 14.9457 4.32217 14.9457 6.57717V22.9772H29.2957L35.4457 29.1272V22.9772H37.4957C39.7507 22.9772 41.5957 21.1342 41.5957 18.8772V6.57717C41.5957 4.32217 39.7507 2.47717 37.4957 2.47717Z" fill="white"/>
</g>
<defs>
<clipPath id="clip0_40_208">
<rect width="41" height="41" fill="white" transform="translate(0.595703 0.427124)"/>
</clipPath>
</defs>
</svg>
