<?xml version="1.0" encoding="utf-8"?>
<!-- Generator: Adobe Illustrator 28.1.0, SVG Export Plug-In . SVG Version: 6.00 Build 0)  -->
<svg version="1.1" id="Layer_1" xmlns="http://www.w3.org/2000/svg" xmlns:xlink="http://www.w3.org/1999/xlink" x="0px" y="0px"
	 width="397.807px" height="131.498px" viewBox="0 0 397.807 131.498" enable-background="new 0 0 397.807 131.498"
	 xml:space="preserve">
<g>
	<g>
		<g>
			<defs>
				<rect id="SVGID_1_" x="31.093" y="7.429" width="335.621" height="116.64"/>
			</defs>
			<clipPath id="SVGID_00000003091321851947629870000008265390066509320632_">
				<use xlink:href="#SVGID_1_"  overflow="visible"/>
			</clipPath>
			<path clip-path="url(#SVGID_00000003091321851947629870000008265390066509320632_)" fill="#FFFFFF" d="M75.003,120.223
				c-8.765-9.62-15.316-1.813-28.434-1.729C46.57,118.494,55.7,128.153,75.003,120.223L75.003,120.223z"/>
		</g>
	</g>
	<path fill="#FFFFFF" d="M65.535,111.662c-7.234-10.821-14.875-4.079-27.858-5.954C37.677,105.708,45.266,116.622,65.535,111.662
		L65.535,111.662z"/>
	<path fill="#FFFFFF" d="M59.108,103.452c-5.055-11.165-13.188-6.081-24.957-9.824C34.15,93.628,39.521,104.934,59.108,103.452
		L59.108,103.452z"/>
	<path fill="#FFFFFF" d="M51.758,93.881C49.335,82.823,41.013,85.85,31.1,80.205C31.1,80.205,33.781,91.451,51.758,93.881
		L51.758,93.881z"/>
	<path fill="#FFFFFF" d="M48.622,83.226c-0.807-10.228-8.653-8.543-16.854-14.841C31.768,68.385,32.783,78.814,48.622,83.226
		L48.622,83.226z"/>
	<path fill="#FFFFFF" d="M47.4,72.029c-0.308-10.255-8.226-8.956-16.111-15.647C31.289,56.382,31.795,66.848,47.4,72.029
		L47.4,72.029z"/>
	<path fill="#FFFFFF" d="M46.635,62.444c0.922-9.695-6.689-9.408-13.324-16.643C33.311,45.801,32.552,55.717,46.635,62.444
		L46.635,62.444z"/>
	<path fill="#FFFFFF" d="M47.233,52.637c2.268-8.125-4.265-9.048-8.816-16.234C38.417,36.402,36.253,44.742,47.233,52.637
		L47.233,52.637z"/>
	<path fill="#FFFFFF" d="M50.125,43.552c2.387-7.745-3.865-8.799-8.051-15.818C42.074,27.734,39.782,35.687,50.125,43.552
		L50.125,43.552z"/>
	<path fill="#FFFFFF" d="M51.27,36.086c2.946-6.164-2.137-7.816-4.762-14.188C46.508,21.898,43.615,28.247,51.27,36.086
		L51.27,36.086z"/>
	<path fill="#FFFFFF" d="M54.036,30.404c3.648-4.978-0.588-7.298-1.852-13.396C52.184,17.008,48.552,22.159,54.036,30.404
		L54.036,30.404z"/>
	<path fill="#FFFFFF" d="M56.98,24.102c4.205-3.436,1.106-6.349,1.372-11.824C58.351,12.278,54.122,15.866,56.98,24.102
		L56.98,24.102z"/>
	<path fill="#FFFFFF" d="M61.97,19.664c4.644-2.812,1.984-6.131,3.013-11.515C64.983,8.149,60.294,11.108,61.97,19.664L61.97,19.664
		z"/>
	<g enable-background="new    ">
		<path fill="#FFFFFF" d="M126.991,43.242h-5.461c-0.63,0-0.84-0.21-0.84-0.84V14.677c0-0.84,0.42-0.84,0.84-0.84h5.461
			c4.621,0,6.301,3.024,6.301,7.897c0,2.604-0.294,4.075-1.302,5.545c-0.168,0.252-0.294,0.42-0.294,0.546s0.084,0.294,0.294,0.63
			c0.924,1.639,1.302,3.529,1.302,6.386C133.292,41.142,131.192,43.242,126.991,43.242z M129.091,21.188
			c-0.042-1.891-0.21-3.613-2.1-3.613h-1.26c-0.84,0-0.84,0-0.84,0.841v6.721c0,0.841,0,0.841,0.84,0.841h1.26
			c1.764,0,2.058-1.597,2.1-3.319V21.188z M126.991,39.504c2.1,0,2.1-2.143,2.1-4.285v-1.218c0-2.143,0-4.285-2.1-4.285h-1.26
			c-0.84,0-0.84,0-0.84,0.798v8.149c0,0.841,0,0.841,0.84,0.841H126.991z"/>
		<path fill="#FFFFFF" d="M136.775,42.402V14.677c0-0.63,0.21-0.84,0.84-0.84h8.863c0.63,0,0.84,0.21,0.84,0.84v2.269
			c0,0.63-0.21,0.841-0.84,0.841h-4.663c-0.84,0-0.84,0-0.84,0.84v6.301c0,0.841,0,0.841,0.84,0.841h4.663
			c0.63,0,0.84,0.21,0.84,0.84v2.269c0,0.63-0.21,0.84-0.84,0.84h-4.663c-0.84,0-0.84,0-0.84,0.84v7.897c0,0.841,0,0.841,0.84,0.841
			h4.663c0.63,0,0.84,0.21,0.84,0.84v2.269c0,0.63-0.21,0.84-0.84,0.84h-8.863C137.195,43.242,136.775,43.242,136.775,42.402z"/>
	</g>
	<g enable-background="new    ">
		<path fill="#FFFFFF" d="M151.091,20.306c0-3.78,2.101-6.595,6.301-6.595c4.495,0,6.259,3.024,6.259,7.562
			c0,0.63-0.21,0.966-0.84,0.966h-2.479c-0.63,0-0.84-0.21-0.84-0.84c0-2.059-0.21-3.823-2.101-3.823c-2.1,0-2.1,2.059-2.1,2.899
			c0,2.1,1.512,4.41,3.696,6.805c2.437,2.646,4.663,5.797,4.663,9.494c0,3.78-2.101,6.595-6.301,6.595
			c-4.495,0-6.259-3.024-6.259-7.562c0-0.63,0.21-0.966,0.84-0.966h2.479c0.63,0,0.84,0.21,0.84,0.84c0,2.059,0.21,3.823,2.1,3.823
			c2.101,0,2.101-2.059,2.101-2.898c0-2.101-1.512-4.495-3.697-6.89C153.317,27.069,151.091,24.003,151.091,20.306z"/>
		<path fill="#FFFFFF" d="M166.421,13.837h10.922c0.63,0,0.84,0.21,0.84,0.84v2.269c0,0.63-0.21,0.841-0.84,0.841h-2.521
			c-0.84,0-0.84,0-0.84,0.84v23.776c0,0.84-0.42,0.84-0.84,0.84h-2.521c-0.42,0-0.84,0-0.84-0.84V18.626c0-0.84,0-0.84-0.798-0.84
			h-2.562c-0.84,0-0.84-0.421-0.84-0.841v-2.269C165.581,14.257,165.581,13.837,166.421,13.837z"/>
	</g>
	<g enable-background="new    ">
		<path fill="#FFFFFF" d="M197.164,35.219c0,2.101,0,4.285,2.101,4.285c2.1,0,2.1-2.143,2.1-4.285v-1.218
			c0-0.631,0.21-0.841,0.841-0.841h2.521c0.63,0,0.84,0.21,0.84,0.841v0.966c0,6.301-2.101,8.401-6.301,8.401
			c-4.201,0-6.301-2.059-6.301-8.401V22.112c0-6.343,2.1-8.401,6.301-8.401c4.2,0,6.301,2.101,6.301,8.401v0.966
			c0,0.631-0.21,0.841-0.84,0.841h-2.521c-0.631,0-0.841-0.21-0.841-0.841V21.86c0-2.143,0-4.285-2.1-4.285
			c-2.101,0-2.101,2.185-2.101,4.285V35.219z"/>
		<path fill="#FFFFFF" d="M219.341,31.187l2.184,11.174c0.126,0.672-0.168,0.882-0.504,0.882h-2.646c-0.546,0-0.798,0-0.924-0.63
			l-2.017-10.334h-1.344c-0.841,0-0.841,0-0.841,0.84v9.284c0,0.84-0.42,0.84-0.84,0.84h-2.521c-0.42,0-0.84,0-0.84-0.84V14.677
			c0-0.63,0.21-0.84,0.84-0.84h5.461c4.201,0,6.301,2.101,6.301,8.401v1.639C221.65,27.699,220.853,29.968,219.341,31.187z
			 M213.249,27.699c0,0.841,0,0.841,0.841,0.841h1.26c2.101,0,2.101-2.143,2.101-4.285V21.86c0-2.143,0-4.285-2.101-4.285h-1.26
			c-0.841,0-0.841,0-0.841,0.841V27.699z"/>
		<path fill="#FFFFFF" d="M234.376,13.837h2.521c0.63,0,0.84,0.21,0.84,0.84v20.164c0,6.301-2.101,8.401-6.301,8.401
			c-4.201,0-6.302-2.059-6.302-8.401V14.677c0-0.63,0.21-0.84,0.841-0.84h2.52c0.631,0,0.841,0.21,0.841,0.84v20.542
			c0,2.101,0,4.285,2.101,4.285c2.1,0,2.1-2.143,2.1-4.285V14.677C233.535,14.047,233.745,13.837,234.376,13.837z"/>
		<path fill="#FFFFFF" d="M241.22,42.402V14.677c0-0.63,0.21-0.84,0.84-0.84h2.521c0.63,0,0.84,0.21,0.84,0.84v27.726
			c0,0.84-0.42,0.84-0.84,0.84h-2.521C241.64,43.242,241.22,43.242,241.22,42.402z"/>
		<path fill="#FFFFFF" d="M248.274,20.306c0-3.78,2.101-6.595,6.302-6.595c4.495,0,6.259,3.024,6.259,7.562
			c0,0.63-0.21,0.966-0.84,0.966h-2.479c-0.63,0-0.84-0.21-0.84-0.84c0-2.059-0.21-3.823-2.101-3.823
			c-2.101,0-2.101,2.059-2.101,2.899c0,2.1,1.513,4.41,3.696,6.805c2.437,2.646,4.663,5.797,4.663,9.494
			c0,3.78-2.101,6.595-6.301,6.595c-4.495,0-6.26-3.024-6.26-7.562c0-0.63,0.211-0.966,0.841-0.966h2.479
			c0.63,0,0.84,0.21,0.84,0.84c0,2.059,0.21,3.823,2.101,3.823c2.101,0,2.101-2.059,2.101-2.898c0-2.101-1.513-4.495-3.697-6.89
			C250.501,27.069,248.274,24.003,248.274,20.306z"/>
	</g>
	<g enable-background="new    ">
		<path fill="#FFFFFF" d="M266.291,42.402V14.677c0-0.63,0.21-0.84,0.841-0.84h8.863c0.63,0,0.84,0.21,0.84,0.84v2.269
			c0,0.63-0.21,0.841-0.84,0.841h-4.663c-0.84,0-0.84,0-0.84,0.84v6.301c0,0.841,0,0.841,0.84,0.841h4.663
			c0.63,0,0.84,0.21,0.84,0.84v2.269c0,0.63-0.21,0.84-0.84,0.84h-4.663c-0.84,0-0.84,0-0.84,0.84v7.897c0,0.841,0,0.841,0.84,0.841
			h4.663c0.63,0,0.84,0.21,0.84,0.84v2.269c0,0.63-0.21,0.84-0.84,0.84h-8.863C266.711,43.242,266.291,43.242,266.291,42.402z"/>
	</g>
	<g enable-background="new    ">
		<path fill="#FFFFFF" d="M112.987,80.91V53.185c0-0.63,0.21-0.84,0.84-0.84h2.52c0.63,0,0.84,0.21,0.84,0.84v23.482
			c0,0.882,0,0.882,0.882,0.882h4.621c0.63,0,0.84,0.211,0.84,0.841v2.521c0,0.63-0.21,0.84-0.84,0.84h-8.863
			C113.197,81.75,112.987,81.54,112.987,80.91z"/>
		<path fill="#FFFFFF" d="M126.384,80.91V53.185c0-0.63,0.21-0.84,0.84-0.84h2.52c0.63,0,0.84,0.21,0.84,0.84V80.91
			c0,0.84-0.42,0.84-0.84,0.84h-2.52C126.804,81.75,126.384,81.75,126.384,80.91z"/>
		<path fill="#FFFFFF" d="M143.731,81.246l-5.125-14.409c-0.084-0.294-0.336-0.21-0.336,0V80.91c0,0.63-0.21,0.84-0.84,0.84h-2.52
			c-0.63,0-0.84-0.21-0.84-0.84V53.185c0-0.63,0.21-0.84,0.84-0.84h2.31c0.462,0,0.672,0.084,0.84,0.546l5.125,14.577
			c0.084,0.252,0.336,0.21,0.336,0V53.185c0-0.63,0.21-0.84,0.84-0.84h2.52c0.63,0,0.84,0.21,0.84,0.84V80.91
			c0,0.63-0.21,0.84-0.84,0.84h-2.31C144.193,81.75,143.899,81.666,143.731,81.246z"/>
		<path fill="#FFFFFF" d="M151.206,80.91V53.185c0-0.63,0.21-0.84,0.84-0.84h8.863c0.63,0,0.84,0.21,0.84,0.84v2.269
			c0,0.63-0.21,0.841-0.84,0.841h-4.663c-0.84,0-0.84,0-0.84,0.84v6.301c0,0.841,0,0.841,0.84,0.841h4.663
			c0.63,0,0.84,0.21,0.84,0.84v2.269c0,0.63-0.21,0.84-0.84,0.84h-4.663c-0.84,0-0.84,0-0.84,0.84v7.897c0,0.841,0,0.841,0.84,0.841
			h4.663c0.63,0,0.84,0.21,0.84,0.84v2.269c0,0.63-0.21,0.84-0.84,0.84h-8.863C151.625,81.75,151.206,81.75,151.206,80.91z"/>
	</g>
	<g enable-background="new    ">
		<path fill="#FFFFFF" d="M183.991,81.876c-4.201,0-6.301-2.059-6.301-8.401V60.62c0-6.343,2.1-8.401,6.301-8.401
			c4.201,0,6.301,2.101,6.301,8.401v12.854C190.292,79.775,188.192,81.876,183.991,81.876z M183.991,56.083
			c-2.101,0-2.101,2.185-2.101,4.285v13.358c0,2.101,0,4.285,2.101,4.285c2.1,0,2.1-2.143,2.1-4.285V60.368
			C186.091,58.226,186.091,56.083,183.991,56.083z"/>
		<path fill="#FFFFFF" d="M206.336,52.345c0.42,0,0.84,0,0.714,0.714l-5.293,27.936c-0.126,0.63-0.252,0.756-0.924,0.756h-2.269
			c-0.672,0-0.798-0.126-0.924-0.756l-5.292-27.936c-0.126-0.714,0.294-0.714,0.714-0.714h2.521c0.546,0,0.798,0,0.924,0.63
			l3.024,18.105c0.042,0.21,0.294,0.21,0.336,0l3.024-18.105c0.127-0.63,0.379-0.63,0.925-0.63H206.336z"/>
	</g>
	<g enable-background="new    ">
		<path fill="#FFFFFF" d="M211.713,80.91V53.185c0-0.63,0.211-0.84,0.841-0.84h8.863c0.63,0,0.841,0.21,0.841,0.84v2.269
			c0,0.63-0.211,0.841-0.841,0.841h-4.663c-0.84,0-0.84,0-0.84,0.84v6.301c0,0.841,0,0.841,0.84,0.841h4.663
			c0.63,0,0.841,0.21,0.841,0.84v2.269c0,0.63-0.211,0.84-0.841,0.84h-4.663c-0.84,0-0.84,0-0.84,0.84v7.897
			c0,0.841,0,0.841,0.84,0.841h4.663c0.63,0,0.841,0.21,0.841,0.84v2.269c0,0.63-0.211,0.84-0.841,0.84h-8.863
			C212.133,81.75,211.713,81.75,211.713,80.91z"/>
		<path fill="#FFFFFF" d="M236.033,69.694l2.184,11.174c0.126,0.672-0.168,0.882-0.504,0.882h-2.646c-0.547,0-0.799,0-0.924-0.63
			l-2.017-10.334h-1.345c-0.84,0-0.84,0-0.84,0.84v9.284c0,0.84-0.42,0.84-0.84,0.84h-2.521c-0.421,0-0.841,0-0.841-0.84V53.185
			c0-0.63,0.211-0.84,0.841-0.84h5.461c4.2,0,6.301,2.101,6.301,8.401v1.639C238.343,66.207,237.545,68.476,236.033,69.694z
			 M229.941,66.207c0,0.841,0,0.841,0.84,0.841h1.261c2.101,0,2.101-2.143,2.101-4.285v-2.395c0-2.143,0-4.285-2.101-4.285h-1.261
			c-0.84,0-0.84,0-0.84,0.841V66.207z"/>
		<path fill="#FFFFFF" d="M252.287,81.75c-0.547,0-0.799,0-0.925-0.63l-0.378-2.269c-0.168-0.84-0.168-0.84-0.924-0.84h-3.738
			c-0.841,0-0.799,0-0.967,0.84l-0.378,2.269c-0.126,0.63-0.378,0.63-0.925,0.63h-2.52c-0.42,0-0.841,0-0.715-0.714l5.293-27.936
			c0.127-0.63,0.252-0.756,0.924-0.756h2.27c0.672,0,0.797,0.126,0.924,0.756l5.293,27.936c0.126,0.714-0.295,0.714-0.715,0.714
			H252.287z M246.279,73.223c-0.126,0.84-0.126,0.84,0.715,0.84h2.352c0.84,0,0.84,0,0.715-0.84l-1.723-10.208
			c-0.042-0.21-0.294-0.21-0.336,0L246.279,73.223z"/>
		<path fill="#FFFFFF" d="M258.416,80.91V53.185c0-0.63,0.21-0.84,0.84-0.84h2.521c0.63,0,0.841,0.21,0.841,0.84v23.482
			c0,0.882,0,0.882,0.882,0.882h4.62c0.631,0,0.841,0.211,0.841,0.841v2.521c0,0.63-0.21,0.84-0.841,0.84h-8.863
			C258.626,81.75,258.416,81.54,258.416,80.91z"/>
	</g>
	<g enable-background="new    ">
		<path fill="#FFFFFF" d="M274.627,80.91V53.185c0-0.63,0.211-0.84,0.841-0.84h2.521c0.63,0,0.84,0.21,0.84,0.84v23.482
			c0,0.882,0,0.882,0.883,0.882h4.62c0.63,0,0.841,0.211,0.841,0.841v2.521c0,0.63-0.211,0.84-0.841,0.84h-8.863
			C274.838,81.75,274.627,81.54,274.627,80.91z"/>
	</g>
	<g enable-background="new    ">
		<path fill="#FFFFFF" d="M94.487,100.669v1.581h-7.683v-1.104c3.943-4.012,5.626-5.967,5.626-7.582
			c0-1.104-0.595-1.887-1.887-1.887c-1.207,0-1.989,0.374-2.805,0.884l-0.731-1.206c0.969-0.714,2.091-1.241,3.587-1.241
			c2.481,0,3.638,1.377,3.638,3.399c0,2.108-1.445,3.961-4.607,7.156H94.487z"/>
		<path fill="#FFFFFF" d="M106.896,100.652v1.598h-4.963v-1.598h1.734v-8.193l-1.462,0.969l-0.816-1.274l2.533-1.802h1.496v10.301
			H106.896z"/>
	</g>
	<g enable-background="new    ">
		<path fill="#FFFFFF" d="M132.327,90.352l-3.604,7.581v4.317h-1.785v-4.301l-3.621-7.598h1.955l2.566,5.745l2.533-5.745H132.327z"
			/>
		<path fill="#FFFFFF" d="M146.318,100.652v1.598h-6.935V90.352h6.816v1.614h-5.049v3.434h4.216v1.581h-4.216v3.672H146.318z"/>
	</g>
	<g enable-background="new    ">
		<path fill="#FFFFFF" d="M163.652,102.25h-1.955l-0.986-3.213c-1.326,0.221-2.652,0.221-3.978,0l-0.986,3.213h-1.938l4.062-11.898
			h1.683L163.652,102.25z M160.287,97.609l-1.581-5.134l-1.564,5.134C158.196,97.813,159.232,97.813,160.287,97.609z"/>
		<path fill="#FFFFFF" d="M179.394,100.941v1.377c-1.649,0.255-2.499,0.136-3.4-1.666l-1.547-3.009
			c-0.697,0-1.343-0.051-1.972-0.238v4.845h-1.768V90.352h4.215c2.312,0,3.774,1.444,3.774,3.349v0.611
			c0,1.462-0.918,2.686-2.431,3.128l1.547,2.873C178.272,101.162,178.901,101.077,179.394,100.941z M172.476,95.824
			c0.765,0.204,1.513,0.256,2.38,0.256c1.343,0,2.057-0.867,2.057-1.989v-0.187c0-1.14-0.714-1.938-1.989-1.938h-2.448V95.824z"/>
	</g>
	<g enable-background="new    ">
		<path fill="#FFFFFF" d="M190.78,100.873c1.564,0,2.465-0.765,2.465-1.853c0-1.241-0.833-1.785-2.397-2.023
			c-1.972-0.288-3.468-1.189-3.468-3.552c0-1.938,1.309-3.315,3.689-3.315c1.513,0,2.516,0.459,3.501,1.173l-0.765,1.292
			c-0.833-0.51-1.598-0.866-2.72-0.866c-1.377,0-1.989,0.714-1.989,1.665c0,1.343,0.85,1.734,2.261,1.972
			c1.802,0.289,3.637,1.037,3.637,3.52c0,2.057-1.411,3.604-4.165,3.604c-1.563,0-2.907-0.527-3.791-1.19l0.731-1.325
			C188.587,100.465,189.624,100.873,190.78,100.873z"/>
	</g>
	<g enable-background="new    ">
		<path fill="#FFFFFF" d="M221.144,100.941v1.377c-1.649,0.255-2.499,0.136-3.399-1.666l-1.547-3.009
			c-0.697,0-1.344-0.051-1.973-0.238v4.845h-1.768V90.352h4.216c2.312,0,3.774,1.444,3.774,3.349v0.611
			c0,1.462-0.918,2.686-2.432,3.128l1.547,2.873C220.021,101.162,220.65,101.077,221.144,100.941z M214.225,95.824
			c0.766,0.204,1.514,0.256,2.381,0.256c1.342,0,2.057-0.867,2.057-1.989v-0.187c0-1.14-0.715-1.938-1.989-1.938h-2.448V95.824z"/>
		<path fill="#FFFFFF" d="M236.086,90.352l-0.016,11.898h-1.615l-0.153-0.986c-0.612,0.663-1.598,1.225-2.805,1.225
			c-2.278,0-3.366-1.173-3.366-3.553v-8.584h1.785v8.346c0,1.563,0.578,2.227,1.921,2.227c1.071,0,2.022-0.68,2.465-1.359v-9.213
			H236.086z"/>
	</g>
	<g enable-background="new    ">
		<path fill="#FFFFFF" d="M252.555,90.352v11.898h-1.684l-4.878-8.346l0.051,8.346h-1.751V90.352h1.666l4.879,8.38l-0.034-8.38
			H252.555z"/>
		<path fill="#FFFFFF" d="M267.838,90.352v11.898h-1.684l-4.879-8.346l0.051,8.346h-1.75V90.352h1.666l4.879,8.38l-0.035-8.38
			H267.838z"/>
		<path fill="#FFFFFF" d="M276.627,90.352v11.898h-1.768V90.352H276.627z"/>
		<path fill="#FFFFFF" d="M291.909,90.352v11.898h-1.683l-4.879-8.346l0.051,8.346h-1.75V90.352h1.665l4.879,8.38l-0.034-8.38
			H291.909z"/>
		<path fill="#FFFFFF" d="M306.869,95.858v6.562h-1.326l-0.289-1.139c-0.713,0.68-1.699,1.207-2.889,1.207
			c-2.228,0-3.52-1.445-3.52-3.773v-4.811c0-2.312,1.7-3.791,4.046-3.791c1.751,0,2.771,0.493,3.706,1.207l-0.748,1.258
			c-0.816-0.527-1.547-0.884-2.958-0.884c-1.325,0-2.261,0.884-2.261,2.431v4.352c0,1.563,0.781,2.431,2.074,2.431
			c0.918,0,1.818-0.425,2.396-1.207v-2.312h-2.346v-1.53H306.869z"/>
	</g>
	<g enable-background="new    ">
		<path fill="#FFFFFF" d="M85.175,111.872l0.169-1.223h6.149l-0.169,1.223h-2.392l-1.105,7.878h-1.365l1.105-7.878H85.175z"/>
		<path fill="#FFFFFF" d="M94.691,112.859l-0.052,1.196c-0.806,0-1.612,0.39-2.145,0.976l-0.663,4.719h-1.3l0.949-6.76h1.118
			l0.013,0.806C93.17,113.236,93.963,112.859,94.691,112.859z"/>
	</g>
	<g enable-background="new    ">
		<path fill="#FFFFFF" d="M99.685,119.75l0.013-0.663c-0.494,0.455-1.274,0.793-2.041,0.793c-1.248,0-2.054-0.494-2.054-1.638
			c0-1.742,1.066-2.263,2.756-2.263c0.546,0,1.079,0.065,1.599,0.183l0.104-0.754c0.143-1.04-0.221-1.404-1.196-1.404
			c-0.819,0-1.521,0.26-2.002,0.507l-0.286-0.936c0.611-0.339,1.56-0.716,2.626-0.716c1.69,0,2.405,0.819,2.184,2.418l-0.637,4.473
			H99.685z M98.008,118.827c0.676,0,1.3-0.338,1.69-0.832l0.13-0.923c-0.494-0.104-1.001-0.156-1.521-0.156
			c-0.936,0-1.365,0.247-1.365,1.104C96.942,118.619,97.371,118.827,98.008,118.827z"/>
		<path fill="#FFFFFF" d="M108.655,112.99l-3.367,6.76h-1.248l-1.456-6.76h1.365l0.962,5.187l2.379-5.187H108.655z"/>
		<path fill="#FFFFFF" d="M114.336,115.563l-0.169,1.209h-4.147l-0.039,0.312c-0.143,1.118,0.286,1.664,1.209,1.664
			c0.819,0,1.495-0.26,2.106-0.598l0.377,0.909c-0.676,0.455-1.56,0.819-2.652,0.819c-1.677,0-2.574-1.014-2.34-2.704l0.234-1.612
			c0.234-1.677,1.417-2.704,3.094-2.704C113.686,112.859,114.57,113.887,114.336,115.563z M111.853,113.991
			c-0.923,0-1.495,0.559-1.677,1.677l-0.026,0.156h2.86l0.026-0.156C113.218,114.562,112.776,113.991,111.853,113.991z"/>
		<path fill="#FFFFFF" d="M116.702,110h1.3l-1.365,9.75h-1.3L116.702,110z"/>
	</g>
	<g enable-background="new    ">
		<path fill="#FFFFFF" d="M130.951,119.75h-1.157l-0.793-3.588l-1.833,3.588h-1.17l-1.469-9.101h1.417l0.923,7.488l1.716-3.497
			l-0.91-3.991h1.248l0.468,2.496l1.196-2.496h1.235l-1.989,3.888l0.741,3.601l2.99-7.488h1.378L130.951,119.75z"/>
		<path fill="#FFFFFF" d="M140.221,115.563l-0.169,1.209h-4.147l-0.039,0.312c-0.143,1.118,0.286,1.664,1.209,1.664
			c0.819,0,1.495-0.26,2.106-0.598l0.377,0.909c-0.676,0.455-1.56,0.819-2.652,0.819c-1.677,0-2.574-1.014-2.34-2.704l0.234-1.612
			c0.234-1.677,1.417-2.704,3.094-2.704C139.57,112.859,140.455,113.887,140.221,115.563z M137.737,113.991
			c-0.923,0-1.495,0.559-1.677,1.677l-0.026,0.156h2.86l0.026-0.156C139.103,114.562,138.66,113.991,137.737,113.991z"/>
	</g>
	<g enable-background="new    ">
		<path fill="#FFFFFF" d="M148.094,115.563l-0.169,1.209h-4.147l-0.039,0.312c-0.143,1.118,0.286,1.664,1.209,1.664
			c0.819,0,1.495-0.26,2.106-0.598l0.377,0.909c-0.676,0.455-1.56,0.819-2.652,0.819c-1.677,0-2.574-1.014-2.34-2.704l0.234-1.612
			c0.234-1.677,1.417-2.704,3.094-2.704C147.443,112.859,148.328,113.887,148.094,115.563z M145.61,113.991
			c-0.923,0-1.495,0.559-1.677,1.677l-0.026,0.156h2.86l0.026-0.156C146.976,114.562,146.533,113.991,145.61,113.991z"/>
		<path fill="#FFFFFF" d="M154.841,118.762l-0.169,1.04c-1.287,0.195-1.833,0.078-2.366-1.273l-0.676-1.703l-0.962,0.948
			l-0.273,1.977h-1.3l1.365-9.75h1.3l-0.832,5.993l3.042-3.003h1.573l-2.886,2.82l1.027,2.471
			C153.943,118.918,154.451,118.866,154.841,118.762z"/>
		<path fill="#FFFFFF" d="M156.842,110h1.3l-1.365,9.75h-1.3L156.842,110z"/>
		<path fill="#FFFFFF" d="M161.691,118.84h0.013l-1.456,2.873h-1.339l1.196-2.236l-1.482-6.486h1.365l0.988,4.953l2.353-4.953h1.365
			L161.691,118.84z"/>
	</g>
	<g enable-background="new    ">
		<path fill="#FFFFFF" d="M176.908,118.749v1.053c-1.261,0.195-1.911,0.104-2.6-1.273l-1.183-2.302
			c-0.533,0-1.027-0.039-1.508-0.182v3.705h-1.352v-9.101h3.224c1.769,0,2.886,1.105,2.886,2.562v0.468
			c0,1.118-0.702,2.054-1.859,2.393l1.183,2.196C176.05,118.918,176.531,118.853,176.908,118.749z M171.616,114.836
			c0.585,0.156,1.157,0.195,1.82,0.195c1.027,0,1.573-0.663,1.573-1.521v-0.143c0-0.871-0.546-1.482-1.521-1.482h-1.872V114.836z"/>
		<path fill="#FFFFFF" d="M179,117.085c0,1.118,0.52,1.664,1.443,1.664c0.819,0,1.456-0.26,2.015-0.598l0.507,0.909
			c-0.611,0.455-1.443,0.819-2.535,0.819c-1.677,0-2.717-1.014-2.717-2.704v-1.612c0-1.677,1.04-2.704,2.717-2.704
			c1.677,0,2.704,1.027,2.704,2.704v1.209H179V117.085z M181.848,115.824v-0.156c0-1.105-0.494-1.677-1.417-1.677
			c-0.923,0-1.443,0.559-1.443,1.677v0.156H181.848z"/>
	</g>
	<g enable-background="new    ">
		<path fill="#FFFFFF" d="M191.071,115.277v4.473h-1.066l-0.091-0.663c-0.429,0.455-1.157,0.793-1.924,0.793
			c-1.378,0-2.301-0.572-2.301-1.95c0-1.521,0.962-1.95,2.457-1.95c0.546,0,1.092,0.065,1.625,0.183v-0.754
			c0-1.04-0.429-1.404-1.404-1.404c-0.819,0-1.482,0.26-1.924,0.507l-0.416-0.936c0.559-0.339,1.456-0.716,2.522-0.716
			C190.239,112.859,191.071,113.679,191.071,115.277z M189.771,118.008v-0.936c-0.52-0.104-1.027-0.156-1.547-0.156
			c-0.806,0-1.222,0.195-1.222,0.949c0,0.728,0.494,0.962,1.196,0.962C188.875,118.827,189.446,118.489,189.771,118.008z"/>
		<path fill="#FFFFFF" d="M198.065,110v9.75h-1.027l-0.091-0.624c-0.455,0.455-1.105,0.754-1.885,0.754
			c-1.561,0-2.366-1.014-2.366-2.704v-1.716c0-1.677,0.78-2.601,2.301-2.601c0.598,0,1.183,0.092,1.768,0.352V110H198.065z
			 M196.765,117.943v-3.589c-0.507-0.247-1.027-0.325-1.547-0.325c-0.858,0-1.248,0.521-1.248,1.587v1.417
			c0,1.118,0.364,1.703,1.287,1.703C195.959,118.736,196.466,118.45,196.765,117.943z"/>
		<path fill="#FFFFFF" d="M200.977,117.085c0,1.118,0.521,1.664,1.443,1.664c0.819,0,1.456-0.26,2.016-0.598l0.507,0.909
			c-0.611,0.455-1.443,0.819-2.535,0.819c-1.677,0-2.717-1.014-2.717-2.704v-1.612c0-1.677,1.041-2.704,2.717-2.704
			s2.704,1.027,2.704,2.704v1.209h-4.135V117.085z M203.824,115.824v-0.156c0-1.105-0.494-1.677-1.417-1.677
			s-1.443,0.559-1.443,1.677v0.156H203.824z"/>
	</g>
	<g enable-background="new    ">
		<path fill="#FFFFFF" d="M209.674,115.018v4.732h-1.301v-6.76h1.119l0.129,0.806c0.481-0.56,1.223-0.937,1.951-0.937l0.104,1.196
			C210.869,114.056,210.142,114.445,209.674,115.018z"/>
		<path fill="#FFFFFF" d="M214.77,118.801c0.924,0,1.379-0.429,1.379-0.936c0-0.611-0.469-0.819-1.47-0.988
			c-1.131-0.195-2.223-0.442-2.223-2.067c0-1.131,0.767-1.95,2.418-1.95c1.065,0,1.769,0.325,2.444,0.807l-0.494,0.884
			c-0.586-0.351-1.131-0.611-1.911-0.611c-0.858,0-1.171,0.364-1.171,0.846c0,0.728,0.572,0.832,1.47,0.975
			c1.118,0.182,2.21,0.455,2.224,2.067c0.013,1.157-0.924,2.054-2.613,2.054c-1.092,0-1.963-0.364-2.588-0.806l0.494-0.91
			C213.288,118.528,213.951,118.801,214.77,118.801z"/>
	</g>
	<g enable-background="new    ">
		<path fill="#FFFFFF" d="M220.193,111.533c-0.26-0.13-0.402-0.39-0.402-0.688c0-0.572,0.39-0.819,0.845-0.819
			c0.468,0,0.871,0.247,0.871,0.832c0,0.702-0.39,1.573-1.573,1.95l-0.312-0.598C219.869,112.054,220.154,111.819,220.193,111.533z"
			/>
		<path fill="#FFFFFF" d="M228.684,119.932c-1.756,0-3.043-1.131-3.043-2.898v-3.666c0-1.769,1.287-2.899,3.043-2.899
			c1.17,0,1.832,0.351,2.534,0.871l-0.571,0.962c-0.611-0.377-1.054-0.624-1.963-0.624c-1.002,0-1.678,0.702-1.678,1.859v3.314
			c0,1.196,0.689,1.872,1.678,1.872c0.909,0,1.352-0.247,1.963-0.624l0.571,0.962C230.516,119.581,229.854,119.932,228.684,119.932z
			"/>
		<path fill="#FFFFFF" d="M237.796,115.316v4.434h-1.287v-4.264c0-1.015-0.312-1.47-1.196-1.47c-0.598,0-1.17,0.416-1.508,0.858
			v4.875h-1.301V110h1.301v3.652c0.468-0.468,1.105-0.793,1.768-0.793C237.146,112.859,237.796,113.718,237.796,115.316z"/>
		<path fill="#FFFFFF" d="M242.125,112.859c1.677,0,2.704,1.015,2.704,2.704v1.612c0,1.69-1.04,2.704-2.704,2.704
			c-1.678,0-2.717-1.014-2.717-2.704v-1.612C239.408,113.874,240.447,112.859,242.125,112.859z M242.125,118.736
			c0.91,0,1.417-0.585,1.417-1.703v-1.326c0-1.118-0.507-1.703-1.417-1.703c-0.924,0-1.43,0.585-1.43,1.703v1.326
			C240.695,118.151,241.201,118.736,242.125,118.736z"/>
		<path fill="#FFFFFF" d="M247.09,111.897c-0.507,0-0.857-0.272-0.857-0.806s0.351-0.819,0.857-0.819
			c0.494,0,0.858,0.286,0.858,0.819S247.584,111.897,247.09,111.897z M247.754,119.75h-1.301v-6.76h1.301V119.75z"/>
	</g>
	<g enable-background="new    ">
		<path fill="#FFFFFF" d="M255.349,118.736c0.819,0,1.3-0.247,1.858-0.585l0.521,0.909c-0.61,0.455-1.325,0.819-2.418,0.819
			c-1.677,0-2.704-1.027-2.704-2.704v-1.612c0-1.677,1.027-2.704,2.704-2.704c1.118,0,1.742,0.338,2.418,0.832l-0.532,0.897
			c-0.586-0.364-0.988-0.585-1.847-0.585c-0.949,0-1.456,0.585-1.456,1.716v1.3C253.893,118.151,254.399,118.736,255.349,118.736z"
			/>
		<path fill="#FFFFFF" d="M260.444,117.085c0,1.118,0.521,1.664,1.442,1.664c0.82,0,1.457-0.26,2.016-0.598l0.508,0.909
			c-0.611,0.455-1.443,0.819-2.535,0.819c-1.678,0-2.718-1.014-2.718-2.704v-1.612c0-1.677,1.04-2.704,2.718-2.704
			c1.676,0,2.703,1.027,2.703,2.704v1.209h-4.134V117.085z M263.291,115.824v-0.156c0-1.105-0.494-1.677-1.416-1.677
			c-0.924,0-1.443,0.559-1.443,1.677v0.156H263.291z"/>
	</g>
	<g enable-background="new    ">
		<path fill="#FFFFFF" d="M277.267,119.75h-1.495l-0.754-2.457c-1.014,0.169-2.027,0.169-3.042,0l-0.754,2.457h-1.482l3.107-9.101
			h1.287L277.267,119.75z M274.693,116.201l-1.21-3.927l-1.196,3.927C273.094,116.356,273.887,116.356,274.693,116.201z"/>
		<path fill="#FFFFFF" d="M285.795,112.99l-2.275,6.76h-1.248l-0.896-3.042l-0.988,3.042h-1.235l-2.274-6.76h1.364l1.548,5.187
			l1.039-3.354l-0.545-1.833h1.377l1.262,5.174l1.508-5.174H285.795z"/>
	</g>
	<g enable-background="new    ">
		<path fill="#FFFFFF" d="M293.282,115.277v4.473h-1.065l-0.092-0.663c-0.429,0.455-1.156,0.793-1.924,0.793
			c-1.378,0-2.301-0.572-2.301-1.95c0-1.521,0.962-1.95,2.457-1.95c0.546,0,1.092,0.065,1.625,0.183v-0.754
			c0-1.04-0.43-1.404-1.404-1.404c-0.818,0-1.482,0.26-1.924,0.507l-0.416-0.936c0.559-0.339,1.456-0.716,2.521-0.716
			C292.45,112.859,293.282,113.679,293.282,115.277z M291.982,118.008v-0.936c-0.52-0.104-1.027-0.156-1.547-0.156
			c-0.807,0-1.223,0.195-1.223,0.949c0,0.728,0.494,0.962,1.196,0.962C291.086,118.827,291.657,118.489,291.982,118.008z"/>
		<path fill="#FFFFFF" d="M296.26,115.018v4.732h-1.301v-6.76h1.118l0.13,0.806c0.48-0.56,1.223-0.937,1.95-0.937l0.104,1.196
			C297.455,114.056,296.727,114.445,296.26,115.018z"/>
		<path fill="#FFFFFF" d="M304.28,110v9.75h-1.027l-0.091-0.624c-0.455,0.455-1.105,0.754-1.885,0.754
			c-1.561,0-2.366-1.014-2.366-2.704v-1.716c0-1.677,0.78-2.601,2.301-2.601c0.599,0,1.183,0.092,1.769,0.352V110H304.28z
			 M302.98,117.943v-3.589c-0.508-0.247-1.027-0.325-1.547-0.325c-0.858,0-1.248,0.521-1.248,1.587v1.417
			c0,1.118,0.363,1.703,1.287,1.703C302.174,118.736,302.682,118.45,302.98,117.943z"/>
		<path fill="#FFFFFF" d="M308.206,118.801c0.923,0,1.378-0.429,1.378-0.936c0-0.611-0.468-0.819-1.469-0.988
			c-1.131-0.195-2.224-0.442-2.224-2.067c0-1.131,0.767-1.95,2.419-1.95c1.065,0,1.768,0.325,2.443,0.807l-0.494,0.884
			c-0.585-0.351-1.131-0.611-1.91-0.611c-0.859,0-1.171,0.364-1.171,0.846c0,0.728,0.572,0.832,1.47,0.975
			c1.117,0.182,2.209,0.455,2.223,2.067c0.013,1.157-0.923,2.054-2.613,2.054c-1.092,0-1.963-0.364-2.587-0.806l0.494-0.91
			C306.724,118.528,307.387,118.801,308.206,118.801z"/>
	</g>
	<g>
		<g>
			<defs>
				<rect id="SVGID_00000140006601855340923560000013180898527072493216_" x="31.093" y="7.429" width="335.621" height="116.64"/>
			</defs>
			<clipPath id="SVGID_00000068665100275774426920000017075299534057211020_">
				<use xlink:href="#SVGID_00000140006601855340923560000013180898527072493216_"  overflow="visible"/>
			</clipPath>
			<path clip-path="url(#SVGID_00000068665100275774426920000017075299534057211020_)" fill="#FFFFFF" d="M322.803,120.223
				c8.765-9.62,15.317-1.813,28.434-1.729C351.237,118.494,342.107,128.153,322.803,120.223L322.803,120.223z"/>
		</g>
	</g>
	<path fill="#FFFFFF" d="M332.272,111.662c7.234-10.821,14.875-4.079,27.858-5.954C360.13,105.708,352.54,116.622,332.272,111.662
		L332.272,111.662z"/>
	<path fill="#FFFFFF" d="M338.699,103.452c5.056-11.165,13.188-6.081,24.958-9.824C363.657,93.628,358.286,104.934,338.699,103.452
		L338.699,103.452z"/>
	<path fill="#FFFFFF" d="M346.049,93.881c2.423-11.058,10.745-8.031,20.658-13.677C366.707,80.205,364.026,91.451,346.049,93.881
		L346.049,93.881z"/>
	<path fill="#FFFFFF" d="M349.185,83.226c0.807-10.228,8.653-8.543,16.854-14.841C366.039,68.385,365.024,78.814,349.185,83.226
		L349.185,83.226z"/>
	<path fill="#FFFFFF" d="M350.407,72.029c0.308-10.255,8.226-8.956,16.111-15.647C366.518,56.382,366.012,66.848,350.407,72.029
		L350.407,72.029z"/>
	<path fill="#FFFFFF" d="M351.172,62.444c-0.922-9.695,6.689-9.408,13.324-16.643C364.496,45.801,365.255,55.717,351.172,62.444
		L351.172,62.444z"/>
	<path fill="#FFFFFF" d="M350.574,52.637c-2.269-8.125,4.265-9.048,8.816-16.234C359.39,36.402,361.554,44.742,350.574,52.637
		L350.574,52.637z"/>
	<path fill="#FFFFFF" d="M347.681,43.552c-2.386-7.745,3.865-8.799,8.052-15.818C355.733,27.734,358.025,35.687,347.681,43.552
		L347.681,43.552z"/>
	<path fill="#FFFFFF" d="M346.537,36.086c-2.946-6.164,2.137-7.816,4.762-14.188C351.299,21.898,354.192,28.247,346.537,36.086
		L346.537,36.086z"/>
	<path fill="#FFFFFF" d="M343.771,30.404c-3.648-4.978,0.588-7.298,1.852-13.396C345.623,17.008,349.255,22.159,343.771,30.404
		L343.771,30.404z"/>
	<path fill="#FFFFFF" d="M340.827,24.102c-4.205-3.436-1.106-6.349-1.371-11.824C339.456,12.278,343.685,15.866,340.827,24.102
		L340.827,24.102z"/>
	<path fill="#FFFFFF" d="M335.837,19.664c-4.645-2.812-1.984-6.131-3.014-11.515C332.823,8.149,337.513,11.108,335.837,19.664
		L335.837,19.664z"/>
</g>
</svg>
