<?xml version="1.0" encoding="utf-8"?>
<!-- Generator: Adobe Illustrator 28.1.0, SVG Export Plug-In . SVG Version: 6.00 Build 0)  -->
<svg version="1.1" id="Layer_1" xmlns="http://www.w3.org/2000/svg" xmlns:xlink="http://www.w3.org/1999/xlink" x="0px" y="0px"
	 width="397.807px" height="131.498px" viewBox="0 0 397.807 131.498" enable-background="new 0 0 397.807 131.498"
	 xml:space="preserve">
<g>
	<g>
		<g>
			<defs>
				<rect id="SVGID_1_" x="32.339" y="6.363" width="335.621" height="116.64"/>
			</defs>
			<clipPath id="SVGID_00000171714483687227557660000004375481442979677105_">
				<use xlink:href="#SVGID_1_"  overflow="visible"/>
			</clipPath>
			<path clip-path="url(#SVGID_00000171714483687227557660000004375481442979677105_)" fill="#FFFFFF" d="M76.249,119.157
				c-8.765-9.62-15.316-1.813-28.434-1.729C47.816,117.428,56.946,127.087,76.249,119.157L76.249,119.157z"/>
		</g>
	</g>
	<path fill="#FFFFFF" d="M66.781,110.596c-7.234-10.821-14.875-4.079-27.858-5.954C38.923,104.642,46.512,115.556,66.781,110.596
		L66.781,110.596z"/>
	<path fill="#FFFFFF" d="M60.353,102.386c-5.055-11.165-13.188-6.081-24.957-9.824C35.396,92.563,40.767,103.868,60.353,102.386
		L60.353,102.386z"/>
	<path fill="#FFFFFF" d="M53.004,92.815c-2.423-11.058-10.745-8.031-20.658-13.677C32.346,79.139,35.027,90.385,53.004,92.815
		L53.004,92.815z"/>
	<path fill="#FFFFFF" d="M49.868,82.16c-0.807-10.228-8.653-8.543-16.854-14.841C33.014,67.319,34.029,77.749,49.868,82.16
		L49.868,82.16z"/>
	<path fill="#FFFFFF" d="M48.646,70.963c-0.308-10.255-8.226-8.956-16.111-15.647C32.535,55.316,33.041,65.783,48.646,70.963
		L48.646,70.963z"/>
	<path fill="#FFFFFF" d="M47.881,61.378c0.922-9.695-6.689-9.408-13.324-16.643C34.557,44.735,33.798,54.651,47.881,61.378
		L47.881,61.378z"/>
	<path fill="#FFFFFF" d="M48.479,51.571c2.268-8.125-4.265-9.048-8.816-16.234C39.663,35.337,37.499,43.676,48.479,51.571
		L48.479,51.571z"/>
	<path fill="#FFFFFF" d="M51.371,42.486c2.387-7.745-3.865-8.799-8.051-15.818C43.32,26.668,41.028,34.622,51.371,42.486
		L51.371,42.486z"/>
	<path fill="#FFFFFF" d="M52.515,35.02c2.946-6.164-2.137-7.816-4.762-14.188C47.754,20.832,44.86,27.182,52.515,35.02L52.515,35.02
		z"/>
	<path fill="#FFFFFF" d="M55.281,29.338c3.648-4.978-0.588-7.298-1.852-13.396C53.43,15.942,49.798,21.093,55.281,29.338
		L55.281,29.338z"/>
	<path fill="#FFFFFF" d="M58.226,23.036c4.205-3.436,1.106-6.349,1.372-11.824C59.597,11.212,55.368,14.8,58.226,23.036
		L58.226,23.036z"/>
	<path fill="#FFFFFF" d="M63.216,18.598c4.644-2.812,1.984-6.131,3.013-11.515C66.229,7.083,61.54,10.042,63.216,18.598
		L63.216,18.598z"/>
	<g enable-background="new    ">
		<path fill="#FFFFFF" d="M95.883,42.183h-5.461c-0.63,0-0.84-0.21-0.84-0.84V13.618c0-0.84,0.42-0.84,0.84-0.84h5.461
			c4.621,0,6.301,3.024,6.301,7.897c0,2.604-0.294,4.075-1.302,5.545c-0.168,0.252-0.294,0.42-0.294,0.546s0.084,0.294,0.294,0.63
			c0.924,1.639,1.302,3.529,1.302,6.386C102.184,40.083,100.083,42.183,95.883,42.183z M97.983,20.129
			c-0.042-1.891-0.21-3.613-2.1-3.613h-1.26c-0.84,0-0.84,0-0.84,0.841v6.721c0,0.841,0,0.841,0.84,0.841h1.26
			c1.764,0,2.058-1.597,2.1-3.319V20.129z M95.883,38.445c2.1,0,2.1-2.143,2.1-4.285v-1.218c0-2.143,0-4.285-2.1-4.285h-1.26
			c-0.84,0-0.84,0-0.84,0.798v8.149c0,0.841,0,0.841,0.84,0.841H95.883z"/>
		<path fill="#FFFFFF" d="M105.667,41.343V13.618c0-0.63,0.21-0.84,0.84-0.84h8.863c0.63,0,0.84,0.21,0.84,0.84v2.269
			c0,0.63-0.21,0.841-0.84,0.841h-4.663c-0.84,0-0.84,0-0.84,0.84v6.301c0,0.841,0,0.841,0.84,0.841h4.663
			c0.63,0,0.84,0.21,0.84,0.84v2.269c0,0.63-0.21,0.84-0.84,0.84h-4.663c-0.84,0-0.84,0-0.84,0.84v7.897c0,0.841,0,0.841,0.84,0.841
			h4.663c0.63,0,0.84,0.21,0.84,0.84v2.269c0,0.63-0.21,0.84-0.84,0.84h-8.863C106.087,42.183,105.667,42.183,105.667,41.343z"/>
	</g>
	<g enable-background="new    ">
		<path fill="#FFFFFF" d="M119.982,19.247c0-3.78,2.101-6.595,6.301-6.595c4.495,0,6.259,3.024,6.259,7.562
			c0,0.63-0.21,0.966-0.84,0.966h-2.479c-0.63,0-0.84-0.21-0.84-0.84c0-2.059-0.21-3.823-2.101-3.823c-2.1,0-2.1,2.059-2.1,2.899
			c0,2.1,1.512,4.41,3.696,6.805c2.437,2.646,4.663,5.797,4.663,9.494c0,3.78-2.101,6.595-6.301,6.595
			c-4.495,0-6.259-3.024-6.259-7.562c0-0.63,0.21-0.966,0.84-0.966h2.479c0.63,0,0.84,0.21,0.84,0.84c0,2.059,0.21,3.823,2.1,3.823
			c2.101,0,2.101-2.059,2.101-2.898c0-2.101-1.512-4.495-3.697-6.89C122.209,26.01,119.982,22.944,119.982,19.247z"/>
		<path fill="#FFFFFF" d="M135.313,12.778h10.922c0.63,0,0.84,0.21,0.84,0.84v2.269c0,0.63-0.21,0.841-0.84,0.841h-2.521
			c-0.84,0-0.84,0-0.84,0.84v23.776c0,0.84-0.42,0.84-0.84,0.84h-2.521c-0.42,0-0.84,0-0.84-0.84V17.567c0-0.84,0-0.84-0.798-0.84
			h-2.562c-0.84,0-0.84-0.421-0.84-0.841v-2.269C134.473,13.198,134.473,12.778,135.313,12.778z"/>
	</g>
	<g enable-background="new    ">
		<path fill="#FFFFFF" d="M166.056,34.16c0,2.101,0,4.285,2.101,4.285c2.1,0,2.1-2.143,2.1-4.285v-1.218
			c0-0.631,0.21-0.841,0.84-0.841h2.521c0.63,0,0.84,0.21,0.84,0.841v0.966c0,6.301-2.1,8.401-6.301,8.401
			c-4.201,0-6.301-2.059-6.301-8.401V21.053c0-6.343,2.1-8.401,6.301-8.401c4.201,0,6.301,2.101,6.301,8.401v0.966
			c0,0.631-0.21,0.841-0.84,0.841h-2.521c-0.63,0-0.84-0.21-0.84-0.841v-1.218c0-2.143,0-4.285-2.1-4.285
			c-2.101,0-2.101,2.185-2.101,4.285V34.16z"/>
		<path fill="#FFFFFF" d="M188.232,30.127l2.184,11.174c0.126,0.672-0.168,0.882-0.504,0.882h-2.646c-0.546,0-0.798,0-0.924-0.63
			l-2.016-10.334h-1.344c-0.84,0-0.84,0-0.84,0.84v9.284c0,0.84-0.42,0.84-0.84,0.84h-2.52c-0.42,0-0.84,0-0.84-0.84V13.618
			c0-0.63,0.21-0.84,0.84-0.84h5.461c4.201,0,6.301,2.101,6.301,8.401v1.639C190.542,26.64,189.745,28.909,188.232,30.127z
			 M182.141,26.64c0,0.841,0,0.841,0.84,0.841h1.26c2.1,0,2.1-2.143,2.1-4.285v-2.395c0-2.143,0-4.285-2.1-4.285h-1.26
			c-0.84,0-0.84,0-0.84,0.841V26.64z"/>
		<path fill="#FFFFFF" d="M203.268,12.778h2.521c0.63,0,0.84,0.21,0.84,0.84v20.164c0,6.301-2.101,8.401-6.301,8.401
			c-4.201,0-6.301-2.059-6.301-8.401V13.618c0-0.63,0.21-0.84,0.84-0.84h2.52c0.63,0,0.84,0.21,0.84,0.84V34.16
			c0,2.101,0,4.285,2.101,4.285c2.1,0,2.1-2.143,2.1-4.285V13.618C202.427,12.988,202.637,12.778,203.268,12.778z"/>
		<path fill="#FFFFFF" d="M210.111,41.343V13.618c0-0.63,0.21-0.84,0.84-0.84h2.521c0.63,0,0.84,0.21,0.84,0.84v27.726
			c0,0.84-0.42,0.84-0.84,0.84h-2.521C210.531,42.183,210.111,42.183,210.111,41.343z"/>
		<path fill="#FFFFFF" d="M217.166,19.247c0-3.78,2.101-6.595,6.302-6.595c4.495,0,6.259,3.024,6.259,7.562
			c0,0.63-0.21,0.966-0.84,0.966h-2.479c-0.63,0-0.84-0.21-0.84-0.84c0-2.059-0.21-3.823-2.101-3.823
			c-2.101,0-2.101,2.059-2.101,2.899c0,2.1,1.513,4.41,3.696,6.805c2.437,2.646,4.663,5.797,4.663,9.494
			c0,3.78-2.101,6.595-6.301,6.595c-4.495,0-6.26-3.024-6.26-7.562c0-0.63,0.211-0.966,0.841-0.966h2.479
			c0.63,0,0.84,0.21,0.84,0.84c0,2.059,0.21,3.823,2.101,3.823c2.101,0,2.101-2.059,2.101-2.898c0-2.101-1.513-4.495-3.697-6.89
			C219.393,26.01,217.166,22.944,217.166,19.247z"/>
		<path fill="#FFFFFF" d="M232.58,41.343V13.618c0-0.63,0.21-0.84,0.841-0.84h8.863c0.63,0,0.84,0.21,0.84,0.84v2.269
			c0,0.63-0.21,0.841-0.84,0.841h-4.663c-0.84,0-0.84,0-0.84,0.84v6.301c0,0.841,0,0.841,0.84,0.841h4.663
			c0.63,0,0.84,0.21,0.84,0.84v2.269c0,0.63-0.21,0.84-0.84,0.84h-4.663c-0.84,0-0.84,0-0.84,0.84v7.897c0,0.841,0,0.841,0.84,0.841
			h4.663c0.63,0,0.84,0.21,0.84,0.84v2.269c0,0.63-0.21,0.84-0.84,0.84h-8.863C233,42.183,232.58,42.183,232.58,41.343z"/>
		<path fill="#FFFFFF" d="M255.974,41.343V13.618c0-0.63,0.21-0.84,0.84-0.84h2.521c0.63,0,0.84,0.21,0.84,0.84V37.1
			c0,0.882,0,0.882,0.883,0.882h4.62c0.631,0,0.841,0.211,0.841,0.841v2.521c0,0.63-0.21,0.84-0.841,0.84h-8.863
			C256.184,42.183,255.974,41.973,255.974,41.343z"/>
		<path fill="#FFFFFF" d="M269.371,41.343V13.618c0-0.63,0.21-0.84,0.841-0.84h2.52c0.631,0,0.841,0.21,0.841,0.84v27.726
			c0,0.84-0.42,0.84-0.841,0.84h-2.52C269.791,42.183,269.371,42.183,269.371,41.343z"/>
		<path fill="#FFFFFF" d="M286.719,41.679l-5.125-14.409c-0.084-0.294-0.336-0.21-0.336,0v14.073c0,0.63-0.21,0.84-0.841,0.84h-2.52
			c-0.631,0-0.841-0.21-0.841-0.84V13.618c0-0.63,0.21-0.84,0.841-0.84h2.31c0.463,0,0.673,0.084,0.841,0.546l5.125,14.577
			c0.084,0.252,0.336,0.21,0.336,0V13.618c0-0.63,0.21-0.84,0.84-0.84h2.521c0.63,0,0.84,0.21,0.84,0.84v27.726
			c0,0.63-0.21,0.84-0.84,0.84h-2.311C287.181,42.183,286.887,42.099,286.719,41.679z"/>
		<path fill="#FFFFFF" d="M294.192,41.343V13.618c0-0.63,0.21-0.84,0.841-0.84h8.863c0.63,0,0.84,0.21,0.84,0.84v2.269
			c0,0.63-0.21,0.841-0.84,0.841h-4.663c-0.84,0-0.84,0-0.84,0.84v6.301c0,0.841,0,0.841,0.84,0.841h4.663
			c0.63,0,0.84,0.21,0.84,0.84v2.269c0,0.63-0.21,0.84-0.84,0.84h-4.663c-0.84,0-0.84,0-0.84,0.84v7.897c0,0.841,0,0.841,0.84,0.841
			h4.663c0.63,0,0.84,0.21,0.84,0.84v2.269c0,0.63-0.21,0.84-0.84,0.84h-8.863C294.612,42.183,294.192,42.183,294.192,41.343z"/>
	</g>
	<g enable-background="new    ">
		<path fill="#FFFFFF" d="M84.675,79.844V52.118c0-0.63,0.21-0.84,0.84-0.84h2.52c0.63,0,0.84,0.21,0.84,0.84v27.726
			c0,0.84-0.42,0.84-0.84,0.84h-2.52C85.095,80.684,84.675,80.684,84.675,79.844z"/>
		<path fill="#FFFFFF" d="M102.022,80.18l-5.125-14.41c-0.084-0.294-0.336-0.21-0.336,0v14.074c0,0.63-0.21,0.84-0.84,0.84h-2.52
			c-0.63,0-0.84-0.21-0.84-0.84V52.118c0-0.63,0.21-0.84,0.84-0.84h2.31c0.462,0,0.672,0.084,0.84,0.546l5.125,14.577
			c0.084,0.252,0.336,0.21,0.336,0V52.118c0-0.63,0.21-0.84,0.84-0.84h2.52c0.63,0,0.84,0.21,0.84,0.84v27.726
			c0,0.63-0.21,0.84-0.84,0.84h-2.31C102.484,80.684,102.19,80.6,102.022,80.18z"/>
		<path fill="#FFFFFF" d="M119.072,51.278h10.922c0.63,0,0.84,0.21,0.84,0.84v2.269c0,0.63-0.21,0.841-0.84,0.841h-2.521
			c-0.84,0-0.84,0-0.84,0.84v23.777c0,0.84-0.42,0.84-0.84,0.84h-2.521c-0.42,0-0.84,0-0.84-0.84V56.067c0-0.84,0-0.84-0.798-0.84
			h-2.562c-0.84,0-0.84-0.421-0.84-0.841v-2.269C118.232,51.698,118.232,51.278,119.072,51.278z"/>
		<path fill="#FFFFFF" d="M142.089,79.844V67.997c0-0.84,0-0.84-0.84-0.84h-2.521c-0.84,0-0.84,0-0.84,0.84v11.847
			c0,0.84-0.42,0.84-0.84,0.84h-2.52c-0.42,0-0.84,0-0.84-0.84V52.118c0-0.63,0.21-0.84,0.84-0.84h2.52c0.63,0,0.84,0.21,0.84,0.84
			v10.25c0,0.841,0,0.841,0.84,0.841h2.521c0.84,0,0.84,0,0.84-0.841v-10.25c0-0.63,0.21-0.84,0.84-0.84h2.521
			c0.63,0,0.84,0.21,0.84,0.84v27.726c0,0.84-0.42,0.84-0.84,0.84h-2.521C142.51,80.684,142.089,80.684,142.089,79.844z"/>
		<path fill="#FFFFFF" d="M149.773,79.844V52.118c0-0.63,0.21-0.84,0.84-0.84h8.863c0.63,0,0.84,0.21,0.84,0.84v2.269
			c0,0.63-0.21,0.841-0.84,0.841h-4.663c-0.84,0-0.84,0-0.84,0.84v6.301c0,0.841,0,0.841,0.84,0.841h4.663
			c0.63,0,0.84,0.21,0.84,0.84v2.269c0,0.63-0.21,0.84-0.84,0.84h-4.663c-0.84,0-0.84,0-0.84,0.84v7.897c0,0.841,0,0.841,0.84,0.841
			h4.663c0.63,0,0.84,0.21,0.84,0.84v2.269c0,0.63-0.21,0.84-0.84,0.84h-8.863C150.193,80.684,149.773,80.684,149.773,79.844z"/>
		<path fill="#FFFFFF" d="M177.367,72.66c0,2.101,0,4.285,2.101,4.285c2.1,0,2.1-2.143,2.1-4.285v-1.218
			c0-0.631,0.21-0.841,0.84-0.841h2.521c0.63,0,0.84,0.21,0.84,0.841v0.966c0,6.301-2.1,8.401-6.301,8.401
			c-4.201,0-6.301-2.059-6.301-8.401V59.553c0-6.343,2.1-8.401,6.301-8.401c4.201,0,6.301,2.101,6.301,8.401v0.966
			c0,0.631-0.21,0.841-0.84,0.841h-2.521c-0.63,0-0.84-0.21-0.84-0.841v-1.218c0-2.143,0-4.285-2.1-4.285
			c-2.101,0-2.101,2.185-2.101,4.285V72.66z"/>
		<path fill="#FFFFFF" d="M199.292,80.684c-0.546,0-0.798,0-0.924-0.63l-0.378-2.269c-0.168-0.84-0.168-0.84-0.924-0.84h-3.738
			c-0.84,0-0.798,0-0.966,0.84l-0.378,2.269c-0.126,0.63-0.378,0.63-0.924,0.63h-2.521c-0.42,0-0.84,0-0.714-0.714l5.293-27.936
			c0.126-0.63,0.252-0.756,0.924-0.756h2.269c0.672,0,0.798,0.126,0.924,0.756l5.292,27.936c0.127,0.714-0.294,0.714-0.714,0.714
			H199.292z M193.286,72.156c-0.126,0.84-0.126,0.84,0.714,0.84h2.353c0.84,0,0.84,0,0.714-0.84l-1.722-10.208
			c-0.042-0.21-0.294-0.21-0.336,0L193.286,72.156z"/>
		<path fill="#FFFFFF" d="M215.714,68.628l2.184,11.174c0.126,0.672-0.168,0.882-0.504,0.882h-2.646c-0.546,0-0.798,0-0.924-0.63
			l-2.017-10.334h-1.344c-0.841,0-0.841,0-0.841,0.84v9.284c0,0.84-0.42,0.84-0.84,0.84h-2.521c-0.42,0-0.84,0-0.84-0.84V52.118
			c0-0.63,0.21-0.84,0.84-0.84h5.461c4.201,0,6.301,2.101,6.301,8.401v1.639C218.023,65.14,217.226,67.409,215.714,68.628z
			 M209.622,65.14c0,0.841,0,0.841,0.841,0.841h1.26c2.101,0,2.101-2.143,2.101-4.285v-2.395c0-2.143,0-4.285-2.101-4.285h-1.26
			c-0.841,0-0.841,0-0.841,0.841V65.14z"/>
		<path fill="#FFFFFF" d="M221.507,79.844V52.118c0-0.63,0.21-0.84,0.841-0.84h2.52c0.631,0,0.841,0.21,0.841,0.84v27.726
			c0,0.84-0.42,0.84-0.841,0.84h-2.52C221.927,80.684,221.507,80.684,221.507,79.844z"/>
		<path fill="#FFFFFF" d="M235.494,80.684h-5.461c-0.631,0-0.841-0.21-0.841-0.84V52.118c0-0.84,0.42-0.84,0.841-0.84h5.461
			c4.62,0,6.301,3.024,6.301,7.897c0,2.604-0.294,4.075-1.303,5.545c-0.168,0.252-0.294,0.42-0.294,0.546s0.084,0.294,0.294,0.63
			c0.925,1.639,1.303,3.53,1.303,6.386C241.795,78.583,239.694,80.684,235.494,80.684z M237.594,58.629
			c-0.042-1.891-0.21-3.613-2.1-3.613h-1.261c-0.84,0-0.84,0-0.84,0.841v6.721c0,0.841,0,0.841,0.84,0.841h1.261
			c1.764,0,2.058-1.597,2.1-3.319V58.629z M235.494,76.945c2.1,0,2.1-2.143,2.1-4.285v-1.218c0-2.143,0-4.285-2.1-4.285h-1.261
			c-0.84,0-0.84,0-0.84,0.798v8.149c0,0.841,0,0.841,0.84,0.841H235.494z"/>
		<path fill="#FFFFFF" d="M251.579,80.684h-5.461c-0.63,0-0.84-0.21-0.84-0.84V52.118c0-0.84,0.42-0.84,0.84-0.84h5.461
			c4.621,0,6.301,3.024,6.301,7.897c0,2.604-0.294,4.075-1.302,5.545c-0.168,0.252-0.294,0.42-0.294,0.546s0.084,0.294,0.294,0.63
			c0.924,1.639,1.302,3.53,1.302,6.386C257.88,78.583,255.78,80.684,251.579,80.684z M253.68,58.629
			c-0.042-1.891-0.21-3.613-2.101-3.613h-1.26c-0.841,0-0.841,0-0.841,0.841v6.721c0,0.841,0,0.841,0.841,0.841h1.26
			c1.765,0,2.059-1.597,2.101-3.319V58.629z M251.579,76.945c2.101,0,2.101-2.143,2.101-4.285v-1.218c0-2.143,0-4.285-2.101-4.285
			h-1.26c-0.841,0-0.841,0-0.841,0.798v8.149c0,0.841,0,0.841,0.841,0.841H251.579z"/>
		<path fill="#FFFFFF" d="M261.363,79.844V52.118c0-0.63,0.21-0.84,0.841-0.84h8.863c0.63,0,0.84,0.21,0.84,0.84v2.269
			c0,0.63-0.21,0.841-0.84,0.841h-4.663c-0.84,0-0.84,0-0.84,0.84v6.301c0,0.841,0,0.841,0.84,0.841h4.663
			c0.63,0,0.84,0.21,0.84,0.84v2.269c0,0.63-0.21,0.84-0.84,0.84h-4.663c-0.84,0-0.84,0-0.84,0.84v7.897c0,0.841,0,0.841,0.84,0.841
			h4.663c0.63,0,0.84,0.21,0.84,0.84v2.269c0,0.63-0.21,0.84-0.84,0.84h-8.863C261.783,80.684,261.363,80.684,261.363,79.844z"/>
		<path fill="#FFFFFF" d="M286.271,80.684c-0.546,0-0.798,0-0.924-0.63l-0.378-2.269c-0.168-0.84-0.168-0.84-0.925-0.84h-3.738
			c-0.84,0-0.798,0-0.966,0.84l-0.378,2.269c-0.126,0.63-0.379,0.63-0.925,0.63h-2.521c-0.42,0-0.84,0-0.714-0.714l5.293-27.936
			c0.126-0.63,0.252-0.756,0.924-0.756h2.269c0.672,0,0.798,0.126,0.925,0.756l5.292,27.936c0.127,0.714-0.294,0.714-0.714,0.714
			H286.271z M280.264,72.156c-0.126,0.84-0.126,0.84,0.714,0.84h2.353c0.84,0,0.84,0,0.714-0.84l-1.722-10.208
			c-0.042-0.21-0.294-0.21-0.336,0L280.264,72.156z"/>
		<path fill="#FFFFFF" d="M302.062,80.18l-5.125-14.41c-0.084-0.294-0.336-0.21-0.336,0v14.074c0,0.63-0.21,0.84-0.841,0.84h-2.52
			c-0.631,0-0.841-0.21-0.841-0.84V52.118c0-0.63,0.21-0.84,0.841-0.84h2.31c0.463,0,0.673,0.084,0.841,0.546l5.125,14.577
			c0.084,0.252,0.336,0.21,0.336,0V52.118c0-0.63,0.21-0.84,0.84-0.84h2.521c0.63,0,0.84,0.21,0.84,0.84v27.726
			c0,0.63-0.21,0.84-0.84,0.84h-2.311C302.524,80.684,302.23,80.6,302.062,80.18z"/>
	</g>
	<g enable-background="new    ">
		<path fill="#FFFFFF" d="M95.738,99.603v1.581h-7.683v-1.104c3.943-4.012,5.626-5.967,5.626-7.582c0-1.104-0.595-1.887-1.887-1.887
			c-1.207,0-1.989,0.374-2.805,0.884l-0.731-1.206c0.969-0.714,2.091-1.241,3.587-1.241c2.481,0,3.638,1.377,3.638,3.399
			c0,2.108-1.445,3.961-4.607,7.156H95.738z"/>
		<path fill="#FFFFFF" d="M108.147,99.586v1.598h-4.963v-1.598h1.734v-8.193l-1.462,0.969l-0.816-1.274l2.533-1.802h1.496v10.301
			H108.147z"/>
	</g>
	<g enable-background="new    ">
		<path fill="#FFFFFF" d="M133.578,89.285l-3.604,7.581v4.317h-1.785v-4.301l-3.621-7.598h1.955l2.566,5.745l2.533-5.745H133.578z"
			/>
		<path fill="#FFFFFF" d="M147.569,99.586v1.598h-6.935V89.285h6.816v1.614h-5.049v3.434h4.216v1.581h-4.216v3.672H147.569z"/>
	</g>
	<g enable-background="new    ">
		<path fill="#FFFFFF" d="M164.903,101.184h-1.955l-0.986-3.213c-1.326,0.221-2.652,0.221-3.978,0l-0.986,3.213h-1.938l4.062-11.898
			h1.683L164.903,101.184z M161.538,96.543l-1.581-5.134l-1.564,5.134C159.447,96.747,160.483,96.747,161.538,96.543z"/>
		<path fill="#FFFFFF" d="M180.645,99.875v1.377c-1.649,0.255-2.499,0.136-3.4-1.666l-1.547-3.009c-0.697,0-1.343-0.051-1.972-0.238
			v4.845h-1.768V89.285h4.215c2.312,0,3.774,1.444,3.774,3.349v0.611c0,1.462-0.918,2.686-2.431,3.128l1.547,2.873
			C179.523,100.096,180.152,100.011,180.645,99.875z M173.727,94.758c0.765,0.204,1.513,0.256,2.38,0.256
			c1.343,0,2.057-0.867,2.057-1.989v-0.187c0-1.14-0.714-1.938-1.989-1.938h-2.448V94.758z"/>
	</g>
	<g enable-background="new    ">
		<path fill="#FFFFFF" d="M192.031,99.807c1.564,0,2.465-0.765,2.465-1.853c0-1.241-0.833-1.785-2.397-2.023
			c-1.972-0.288-3.468-1.189-3.468-3.552c0-1.938,1.309-3.315,3.689-3.315c1.513,0,2.516,0.459,3.501,1.173l-0.765,1.292
			c-0.833-0.51-1.598-0.866-2.72-0.866c-1.377,0-1.989,0.714-1.989,1.665c0,1.343,0.85,1.734,2.261,1.972
			c1.802,0.289,3.637,1.037,3.637,3.52c0,2.057-1.411,3.604-4.165,3.604c-1.563,0-2.907-0.527-3.791-1.19l0.731-1.325
			C189.838,99.398,190.875,99.807,192.031,99.807z"/>
	</g>
	<g enable-background="new    ">
		<path fill="#FFFFFF" d="M222.387,99.875v1.377c-1.649,0.255-2.499,0.136-3.4-1.666l-1.546-3.009c-0.697,0-1.344-0.051-1.973-0.238
			v4.845H213.7V89.285h4.216c2.312,0,3.773,1.444,3.773,3.349v0.611c0,1.462-0.918,2.686-2.431,3.128l1.547,2.873
			C221.265,100.096,221.894,100.011,222.387,99.875z M215.468,94.758c0.766,0.204,1.514,0.256,2.38,0.256
			c1.343,0,2.057-0.867,2.057-1.989v-0.187c0-1.14-0.714-1.938-1.988-1.938h-2.448V94.758z"/>
		<path fill="#FFFFFF" d="M237.329,89.285l-0.017,11.898h-1.615l-0.152-0.986c-0.612,0.663-1.598,1.225-2.805,1.225
			c-2.278,0-3.366-1.173-3.366-3.553v-8.584h1.785v8.346c0,1.563,0.578,2.227,1.921,2.227c1.07,0,2.022-0.68,2.465-1.359v-9.213
			H237.329z"/>
	</g>
	<g enable-background="new    ">
		<path fill="#FFFFFF" d="M253.806,89.285v11.898h-1.683l-4.879-8.346l0.051,8.346h-1.75V89.285h1.665l4.879,8.38l-0.034-8.38
			H253.806z"/>
		<path fill="#FFFFFF" d="M269.088,89.285v11.898h-1.683l-4.878-8.346l0.051,8.346h-1.751V89.285h1.665l4.879,8.38l-0.033-8.38
			H269.088z"/>
		<path fill="#FFFFFF" d="M277.878,89.285v11.898h-1.768V89.285H277.878z"/>
		<path fill="#FFFFFF" d="M293.16,89.285v11.898h-1.684l-4.878-8.346l0.051,8.346h-1.751V89.285h1.666l4.879,8.38l-0.034-8.38
			H293.16z"/>
		<path fill="#FFFFFF" d="M308.12,94.792v6.562h-1.325l-0.289-1.139c-0.715,0.68-1.7,1.207-2.891,1.207
			c-2.227,0-3.518-1.445-3.518-3.773v-4.811c0-2.312,1.699-3.791,4.045-3.791c1.751,0,2.771,0.493,3.705,1.207l-0.748,1.258
			c-0.815-0.527-1.546-0.884-2.957-0.884c-1.326,0-2.261,0.884-2.261,2.431v4.352c0,1.563,0.782,2.431,2.073,2.431
			c0.918,0,1.819-0.425,2.397-1.207v-2.312h-2.346v-1.53H308.12z"/>
	</g>
	<g enable-background="new    ">
		<path fill="#FFFFFF" d="M86.418,110.806l0.169-1.223h6.149l-0.169,1.223h-2.392l-1.105,7.878h-1.365l1.105-7.878H86.418z"/>
		<path fill="#FFFFFF" d="M95.935,111.793l-0.052,1.196c-0.806,0-1.612,0.39-2.145,0.976l-0.663,4.719h-1.3l0.949-6.76h1.118
			l0.013,0.806C94.414,112.17,95.207,111.793,95.935,111.793z"/>
	</g>
	<g enable-background="new    ">
		<path fill="#FFFFFF" d="M100.928,118.684l0.013-0.663c-0.494,0.455-1.274,0.793-2.041,0.793c-1.248,0-2.054-0.494-2.054-1.638
			c0-1.742,1.066-2.263,2.756-2.263c0.546,0,1.079,0.065,1.599,0.183l0.104-0.754c0.143-1.04-0.221-1.404-1.196-1.404
			c-0.819,0-1.521,0.26-2.002,0.507l-0.286-0.936c0.611-0.339,1.56-0.716,2.626-0.716c1.69,0,2.405,0.819,2.184,2.418l-0.637,4.473
			H100.928z M99.251,117.761c0.676,0,1.3-0.338,1.69-0.832l0.13-0.923c-0.494-0.104-1.001-0.156-1.521-0.156
			c-0.936,0-1.365,0.247-1.365,1.104C98.185,117.553,98.614,117.761,99.251,117.761z"/>
		<path fill="#FFFFFF" d="M109.898,111.924l-3.367,6.76h-1.248l-1.456-6.76h1.365l0.962,5.187l2.379-5.187H109.898z"/>
		<path fill="#FFFFFF" d="M115.579,114.497l-0.169,1.209h-4.147l-0.039,0.312c-0.143,1.118,0.286,1.664,1.209,1.664
			c0.819,0,1.495-0.26,2.106-0.598l0.377,0.909c-0.676,0.455-1.56,0.819-2.652,0.819c-1.677,0-2.574-1.014-2.34-2.704l0.234-1.612
			c0.234-1.677,1.417-2.704,3.094-2.704C114.929,111.793,115.813,112.82,115.579,114.497z M113.096,112.925
			c-0.923,0-1.495,0.559-1.677,1.677l-0.026,0.156h2.86l0.026-0.156C114.461,113.496,114.02,112.925,113.096,112.925z"/>
		<path fill="#FFFFFF" d="M117.945,108.934h1.3l-1.365,9.75h-1.3L117.945,108.934z"/>
	</g>
	<g enable-background="new    ">
		<path fill="#FFFFFF" d="M132.202,118.684h-1.157l-0.793-3.588l-1.833,3.588h-1.17l-1.469-9.101h1.417l0.923,7.488l1.716-3.497
			l-0.91-3.991h1.248l0.468,2.496l1.196-2.496h1.235l-1.989,3.888l0.741,3.601l2.99-7.488h1.378L132.202,118.684z"/>
		<path fill="#FFFFFF" d="M141.472,114.497l-0.169,1.209h-4.147l-0.039,0.312c-0.143,1.118,0.286,1.664,1.209,1.664
			c0.819,0,1.495-0.26,2.106-0.598l0.377,0.909c-0.676,0.455-1.56,0.819-2.652,0.819c-1.677,0-2.574-1.014-2.34-2.704l0.234-1.612
			c0.234-1.677,1.417-2.704,3.094-2.704C140.821,111.793,141.706,112.82,141.472,114.497z M138.988,112.925
			c-0.923,0-1.495,0.559-1.677,1.677l-0.026,0.156h2.86l0.026-0.156C140.354,113.496,139.911,112.925,138.988,112.925z"/>
	</g>
	<g enable-background="new    ">
		<path fill="#FFFFFF" d="M149.337,114.497l-0.169,1.209h-4.147l-0.039,0.312c-0.143,1.118,0.286,1.664,1.209,1.664
			c0.819,0,1.495-0.26,2.106-0.598l0.377,0.909c-0.676,0.455-1.56,0.819-2.652,0.819c-1.677,0-2.574-1.014-2.34-2.704l0.234-1.612
			c0.234-1.677,1.417-2.704,3.094-2.704C148.687,111.793,149.571,112.82,149.337,114.497z M146.854,112.925
			c-0.923,0-1.495,0.559-1.677,1.677l-0.026,0.156h2.86l0.026-0.156C148.219,113.496,147.776,112.925,146.854,112.925z"/>
		<path fill="#FFFFFF" d="M156.084,117.695l-0.169,1.04c-1.287,0.195-1.833,0.078-2.366-1.273l-0.676-1.703l-0.962,0.948
			l-0.273,1.977h-1.3l1.365-9.75h1.3l-0.832,5.993l3.042-3.003h1.573l-2.886,2.82l1.027,2.471
			C155.187,117.852,155.694,117.8,156.084,117.695z"/>
		<path fill="#FFFFFF" d="M158.085,108.934h1.3l-1.365,9.75h-1.3L158.085,108.934z"/>
		<path fill="#FFFFFF" d="M162.934,117.773h0.013l-1.456,2.873h-1.339l1.196-2.236l-1.482-6.486h1.365l0.988,4.953l2.353-4.953
			h1.365L162.934,117.773z"/>
	</g>
	<g enable-background="new    ">
		<path fill="#FFFFFF" d="M178.151,117.683v1.053c-1.261,0.195-1.911,0.104-2.6-1.273l-1.183-2.302
			c-0.533,0-1.027-0.039-1.508-0.182v3.705h-1.352v-9.101h3.224c1.769,0,2.886,1.105,2.886,2.562v0.468
			c0,1.118-0.702,2.054-1.859,2.393l1.183,2.196C177.293,117.852,177.774,117.786,178.151,117.683z M172.859,113.77
			c0.585,0.156,1.157,0.195,1.82,0.195c1.027,0,1.573-0.663,1.573-1.521v-0.143c0-0.871-0.546-1.482-1.521-1.482h-1.872V113.77z"/>
		<path fill="#FFFFFF" d="M180.244,116.019c0,1.118,0.52,1.664,1.443,1.664c0.819,0,1.456-0.26,2.015-0.598l0.507,0.909
			c-0.611,0.455-1.443,0.819-2.535,0.819c-1.677,0-2.717-1.014-2.717-2.704v-1.612c0-1.677,1.04-2.704,2.717-2.704
			c1.677,0,2.704,1.027,2.704,2.704v1.209h-4.134V116.019z M183.091,114.758v-0.156c0-1.105-0.494-1.677-1.417-1.677
			c-0.923,0-1.443,0.559-1.443,1.677v0.156H183.091z"/>
	</g>
	<g enable-background="new    ">
		<path fill="#FFFFFF" d="M192.322,114.211v4.473h-1.066l-0.091-0.663c-0.429,0.455-1.157,0.793-1.924,0.793
			c-1.378,0-2.301-0.572-2.301-1.95c0-1.521,0.962-1.95,2.457-1.95c0.546,0,1.092,0.065,1.625,0.183v-0.754
			c0-1.04-0.429-1.404-1.404-1.404c-0.819,0-1.482,0.26-1.924,0.507l-0.416-0.936c0.559-0.339,1.456-0.716,2.522-0.716
			C191.49,111.793,192.322,112.612,192.322,114.211z M191.022,116.941v-0.936c-0.52-0.104-1.027-0.156-1.547-0.156
			c-0.806,0-1.222,0.195-1.222,0.949c0,0.728,0.494,0.962,1.196,0.962C190.125,117.761,190.697,117.423,191.022,116.941z"/>
		<path fill="#FFFFFF" d="M199.316,108.934v9.75h-1.027l-0.091-0.624c-0.455,0.455-1.105,0.754-1.885,0.754
			c-1.561,0-2.366-1.014-2.366-2.704v-1.716c0-1.677,0.78-2.601,2.301-2.601c0.598,0,1.183,0.092,1.768,0.352v-3.211H199.316z
			 M198.016,116.877v-3.589c-0.507-0.247-1.027-0.325-1.547-0.325c-0.858,0-1.248,0.521-1.248,1.587v1.417
			c0,1.118,0.364,1.703,1.287,1.703C197.21,117.67,197.717,117.384,198.016,116.877z"/>
		<path fill="#FFFFFF" d="M202.228,116.019c0,1.118,0.521,1.664,1.443,1.664c0.819,0,1.456-0.26,2.015-0.598l0.508,0.909
			c-0.611,0.455-1.443,0.819-2.535,0.819c-1.678,0-2.718-1.014-2.718-2.704v-1.612c0-1.677,1.04-2.704,2.718-2.704
			c1.677,0,2.704,1.027,2.704,2.704v1.209h-4.135V116.019z M205.075,114.758v-0.156c0-1.105-0.494-1.677-1.417-1.677
			c-0.924,0-1.443,0.559-1.443,1.677v0.156H205.075z"/>
	</g>
	<g enable-background="new    ">
		<path fill="#FFFFFF" d="M210.925,113.951v4.732h-1.3v-6.76h1.117l0.131,0.806c0.48-0.56,1.222-0.937,1.949-0.937l0.104,1.196
			C212.121,112.989,211.393,113.379,210.925,113.951z"/>
		<path fill="#FFFFFF" d="M216.021,117.734c0.922,0,1.377-0.429,1.377-0.936c0-0.611-0.468-0.819-1.469-0.988
			c-1.131-0.195-2.223-0.442-2.223-2.067c0-1.131,0.767-1.95,2.418-1.95c1.066,0,1.768,0.325,2.443,0.807l-0.493,0.884
			c-0.585-0.351-1.132-0.611-1.911-0.611c-0.858,0-1.17,0.364-1.17,0.846c0,0.728,0.572,0.832,1.469,0.975
			c1.118,0.182,2.21,0.455,2.223,2.067c0.014,1.157-0.923,2.054-2.613,2.054c-1.092,0-1.963-0.364-2.586-0.806l0.494-0.91
			C214.539,117.462,215.201,117.734,216.021,117.734z"/>
	</g>
	<g enable-background="new    ">
		<path fill="#FFFFFF" d="M221.445,110.467c-0.261-0.13-0.403-0.39-0.403-0.688c0-0.572,0.39-0.819,0.845-0.819
			c0.469,0,0.871,0.247,0.871,0.832c0,0.702-0.391,1.573-1.573,1.95l-0.312-0.598C221.119,110.987,221.406,110.753,221.445,110.467z
			"/>
		<path fill="#FFFFFF" d="M229.934,118.865c-1.755,0-3.042-1.131-3.042-2.898v-3.666c0-1.769,1.287-2.899,3.042-2.899
			c1.17,0,1.834,0.351,2.535,0.871l-0.572,0.962c-0.61-0.377-1.053-0.624-1.963-0.624c-1.001,0-1.677,0.702-1.677,1.859v3.314
			c0,1.196,0.688,1.872,1.677,1.872c0.91,0,1.353-0.247,1.963-0.624l0.572,0.962C231.768,118.515,231.104,118.865,229.934,118.865z"
			/>
		<path fill="#FFFFFF" d="M239.047,114.25v4.434h-1.287v-4.264c0-1.015-0.312-1.47-1.196-1.47c-0.598,0-1.17,0.416-1.508,0.858
			v4.875h-1.3v-9.75h1.3v3.652c0.468-0.468,1.104-0.793,1.769-0.793C238.396,111.793,239.047,112.651,239.047,114.25z"/>
		<path fill="#FFFFFF" d="M243.376,111.793c1.677,0,2.704,1.015,2.704,2.704v1.612c0,1.69-1.04,2.704-2.704,2.704
			c-1.677,0-2.718-1.014-2.718-2.704v-1.612C240.658,112.808,241.699,111.793,243.376,111.793z M243.376,117.67
			c0.91,0,1.417-0.585,1.417-1.703v-1.326c0-1.118-0.507-1.703-1.417-1.703c-0.923,0-1.431,0.585-1.431,1.703v1.326
			C241.945,117.085,242.453,117.67,243.376,117.67z"/>
		<path fill="#FFFFFF" d="M248.342,110.831c-0.508,0-0.858-0.272-0.858-0.806s0.351-0.819,0.858-0.819
			c0.494,0,0.857,0.286,0.857,0.819S248.836,110.831,248.342,110.831z M249.004,118.684h-1.3v-6.76h1.3V118.684z"/>
	</g>
	<g enable-background="new    ">
		<path fill="#FFFFFF" d="M256.6,117.67c0.818,0,1.3-0.247,1.859-0.585l0.52,0.909c-0.611,0.455-1.326,0.819-2.418,0.819
			c-1.677,0-2.704-1.027-2.704-2.704v-1.612c0-1.677,1.027-2.704,2.704-2.704c1.118,0,1.742,0.338,2.418,0.832l-0.533,0.897
			c-0.584-0.364-0.988-0.585-1.846-0.585c-0.949,0-1.456,0.585-1.456,1.716v1.3C255.144,117.085,255.65,117.67,256.6,117.67z"/>
		<path fill="#FFFFFF" d="M261.695,116.019c0,1.118,0.52,1.664,1.443,1.664c0.818,0,1.455-0.26,2.015-0.598l0.507,0.909
			c-0.611,0.455-1.443,0.819-2.535,0.819c-1.677,0-2.717-1.014-2.717-2.704v-1.612c0-1.677,1.04-2.704,2.717-2.704
			c1.678,0,2.705,1.027,2.705,2.704v1.209h-4.135V116.019z M264.543,114.758v-0.156c0-1.105-0.494-1.677-1.418-1.677
			c-0.923,0-1.443,0.559-1.443,1.677v0.156H264.543z"/>
	</g>
	<g enable-background="new    ">
		<path fill="#FFFFFF" d="M278.518,118.684h-1.495l-0.754-2.457c-1.014,0.169-2.028,0.169-3.042,0l-0.754,2.457h-1.482l3.107-9.101
			h1.287L278.518,118.684z M275.943,115.135l-1.209-3.927l-1.196,3.927C274.345,115.29,275.138,115.29,275.943,115.135z"/>
		<path fill="#FFFFFF" d="M287.046,111.924l-2.275,6.76h-1.248l-0.897-3.042l-0.987,3.042h-1.235l-2.275-6.76h1.365l1.547,5.187
			l1.04-3.354l-0.546-1.833h1.378l1.262,5.174l1.508-5.174H287.046z"/>
	</g>
	<g enable-background="new    ">
		<path fill="#FFFFFF" d="M294.525,114.211v4.473h-1.066l-0.09-0.663c-0.43,0.455-1.158,0.793-1.925,0.793
			c-1.378,0-2.301-0.572-2.301-1.95c0-1.521,0.962-1.95,2.457-1.95c0.546,0,1.092,0.065,1.625,0.183v-0.754
			c0-1.04-0.429-1.404-1.404-1.404c-0.819,0-1.481,0.26-1.924,0.507l-0.416-0.936c0.56-0.339,1.456-0.716,2.522-0.716
			C293.693,111.793,294.525,112.612,294.525,114.211z M293.226,116.941v-0.936c-0.521-0.104-1.027-0.156-1.548-0.156
			c-0.805,0-1.221,0.195-1.221,0.949c0,0.728,0.493,0.962,1.195,0.962C292.328,117.761,292.9,117.423,293.226,116.941z"/>
		<path fill="#FFFFFF" d="M297.502,113.951v4.732h-1.3v-6.76h1.118l0.13,0.806c0.481-0.56,1.222-0.937,1.95-0.937l0.104,1.196
			C298.698,112.989,297.971,113.379,297.502,113.951z"/>
		<path fill="#FFFFFF" d="M305.523,108.934v9.75h-1.027l-0.091-0.624c-0.455,0.455-1.104,0.754-1.885,0.754
			c-1.561,0-2.366-1.014-2.366-2.704v-1.716c0-1.677,0.779-2.601,2.301-2.601c0.598,0,1.184,0.092,1.768,0.352v-3.211H305.523z
			 M304.223,116.877v-3.589c-0.506-0.247-1.026-0.325-1.547-0.325c-0.857,0-1.248,0.521-1.248,1.587v1.417
			c0,1.118,0.364,1.703,1.287,1.703C303.418,117.67,303.924,117.384,304.223,116.877z"/>
		<path fill="#FFFFFF" d="M309.449,117.734c0.923,0,1.378-0.429,1.378-0.936c0-0.611-0.468-0.819-1.47-0.988
			c-1.131-0.195-2.223-0.442-2.223-2.067c0-1.131,0.768-1.95,2.418-1.95c1.066,0,1.769,0.325,2.444,0.807l-0.494,0.884
			c-0.585-0.351-1.131-0.611-1.911-0.611c-0.857,0-1.17,0.364-1.17,0.846c0,0.728,0.572,0.832,1.469,0.975
			c1.119,0.182,2.211,0.455,2.224,2.067c0.013,1.157-0.923,2.054-2.613,2.054c-1.092,0-1.963-0.364-2.587-0.806l0.494-0.91
			C307.967,117.462,308.63,117.734,309.449,117.734z"/>
	</g>
	<g>
		<g>
			<defs>
				<rect id="SVGID_00000049905003022482851970000003708687869799210402_" x="32.339" y="6.363" width="335.621" height="116.64"/>
			</defs>
			<clipPath id="SVGID_00000026130543762031683000000013175626273901107110_">
				<use xlink:href="#SVGID_00000049905003022482851970000003708687869799210402_"  overflow="visible"/>
			</clipPath>
			<path clip-path="url(#SVGID_00000026130543762031683000000013175626273901107110_)" fill="#FFFFFF" d="M324.049,119.157
				c8.765-9.62,15.317-1.813,28.434-1.729C352.483,117.428,343.353,127.087,324.049,119.157L324.049,119.157z"/>
		</g>
	</g>
	<path fill="#FFFFFF" d="M333.518,110.596c7.234-10.821,14.875-4.079,27.858-5.954C361.376,104.642,353.786,115.556,333.518,110.596
		L333.518,110.596z"/>
	<path fill="#FFFFFF" d="M339.945,102.386c5.056-11.165,13.188-6.081,24.958-9.824C364.903,92.563,359.532,103.868,339.945,102.386
		L339.945,102.386z"/>
	<path fill="#FFFFFF" d="M347.295,92.815c2.423-11.058,10.745-8.031,20.658-13.677C367.953,79.139,365.272,90.385,347.295,92.815
		L347.295,92.815z"/>
	<path fill="#FFFFFF" d="M350.431,82.16c0.807-10.228,8.653-8.543,16.854-14.841C367.285,67.319,366.27,77.749,350.431,82.16
		L350.431,82.16z"/>
	<path fill="#FFFFFF" d="M351.653,70.963c0.308-10.255,8.226-8.956,16.111-15.647C367.764,55.316,367.258,65.783,351.653,70.963
		L351.653,70.963z"/>
	<path fill="#FFFFFF" d="M352.418,61.378c-0.922-9.695,6.689-9.408,13.324-16.643C365.742,44.735,366.501,54.651,352.418,61.378
		L352.418,61.378z"/>
	<path fill="#FFFFFF" d="M351.82,51.571c-2.269-8.125,4.265-9.048,8.816-16.234C360.636,35.337,362.8,43.676,351.82,51.571
		L351.82,51.571z"/>
	<path fill="#FFFFFF" d="M348.927,42.486c-2.386-7.745,3.865-8.799,8.052-15.818C356.979,26.668,359.271,34.622,348.927,42.486
		L348.927,42.486z"/>
	<path fill="#FFFFFF" d="M347.783,35.02c-2.946-6.164,2.137-7.816,4.762-14.188C352.545,20.832,355.438,27.182,347.783,35.02
		L347.783,35.02z"/>
	<path fill="#FFFFFF" d="M345.017,29.338c-3.648-4.978,0.588-7.298,1.852-13.396C346.869,15.942,350.501,21.093,345.017,29.338
		L345.017,29.338z"/>
	<path fill="#FFFFFF" d="M342.073,23.036c-4.205-3.436-1.106-6.349-1.371-11.824C340.702,11.212,344.931,14.8,342.073,23.036
		L342.073,23.036z"/>
	<path fill="#FFFFFF" d="M337.083,18.598c-4.645-2.812-1.984-6.131-3.014-11.515C334.069,7.083,338.759,10.042,337.083,18.598
		L337.083,18.598z"/>
</g>
</svg>
