<?xml version="1.0" encoding="utf-8"?>
<!-- Generator: Adobe Illustrator 28.1.0, SVG Export Plug-In . SVG Version: 6.00 Build 0)  -->
<svg version="1.1" id="Layer_1" xmlns="http://www.w3.org/2000/svg" xmlns:xlink="http://www.w3.org/1999/xlink" x="0px" y="0px"
	 width="397.807px" height="131.498px" viewBox="0 0 397.807 131.498" enable-background="new 0 0 397.807 131.498"
	 xml:space="preserve">
<g>
	<path fill="#FFFFFF" d="M44.918,117.756c-7.986-8.754-13.955-1.65-25.906-1.574C19.012,116.182,27.331,124.972,44.918,117.756
		L44.918,117.756z"/>
	<g>
		<path fill="#FFFFFF" d="M36.292,109.966c-6.591-9.847-13.553-3.712-25.382-5.418C10.91,104.548,17.825,114.479,36.292,109.966
			L36.292,109.966z"/>
		<path fill="#FFFFFF" d="M30.435,102.495c-4.606-10.16-12.015-5.534-22.739-8.939C7.697,93.556,12.59,103.844,30.435,102.495
			L30.435,102.495z"/>
		<path fill="#FFFFFF" d="M23.739,93.786c-2.208-10.062-9.79-7.308-18.821-12.445C4.918,81.341,7.361,91.574,23.739,93.786
			L23.739,93.786z"/>
		<path fill="#FFFFFF" d="M20.882,84.09c-0.736-9.307-7.884-7.774-15.356-13.505C5.526,70.585,6.451,80.076,20.882,84.09
			L20.882,84.09z"/>
		<path fill="#FFFFFF" d="M19.769,73.901c-0.28-9.332-7.495-8.149-14.679-14.238C5.09,59.663,5.551,69.187,19.769,73.901
			L19.769,73.901z"/>
		<path fill="#FFFFFF" d="M19.072,65.179c0.84-8.822-6.095-8.561-12.14-15.144C6.932,50.034,6.24,59.058,19.072,65.179
			L19.072,65.179z"/>
		<path fill="#FFFFFF" d="M19.617,56.255c2.067-7.393-3.886-8.233-8.032-14.773C11.584,41.482,9.612,49.071,19.617,56.255
			L19.617,56.255z"/>
		<path fill="#FFFFFF" d="M22.252,47.988c2.174-7.048-3.521-8.007-7.336-14.394C14.916,33.594,12.828,40.831,22.252,47.988
			L22.252,47.988z"/>
		<path fill="#FFFFFF" d="M23.294,41.194c2.685-5.609-1.947-7.112-4.338-12.91C18.956,28.284,16.32,34.061,23.294,41.194
			L23.294,41.194z"/>
		<path fill="#FFFFFF" d="M25.814,36.024c3.324-4.53-0.536-6.641-1.687-12.19C24.127,23.834,20.818,28.521,25.814,36.024
			L25.814,36.024z"/>
		<path fill="#FFFFFF" d="M28.497,30.289c3.831-3.127,1.008-5.777,1.25-10.759C29.746,19.53,25.893,22.795,28.497,30.289
			L28.497,30.289z"/>
		<path fill="#FFFFFF" d="M33.044,26.251c4.232-2.559,1.807-5.579,2.745-10.478C35.789,15.773,31.516,18.465,33.044,26.251
			L33.044,26.251z"/>
	</g>
	<g>
		<path fill="#FFFFFF" d="M355.009,117.756c7.986-8.754,13.955-1.65,25.906-1.574C380.915,116.182,372.596,124.972,355.009,117.756
			L355.009,117.756z"/>
		<path fill="#FFFFFF" d="M363.636,108.469c6.592-9.69,13.554-3.653,25.382-5.332C389.018,103.137,382.103,112.911,363.636,108.469
			L363.636,108.469z"/>
		<path fill="#FFFFFF" d="M369.492,101.117c4.606-9.998,12.016-5.446,22.74-8.797C392.231,92.32,387.338,102.445,369.492,101.117
			L369.492,101.117z"/>
		<path fill="#FFFFFF" d="M376.188,92.546c2.208-9.902,9.79-7.192,18.822-12.248C395.01,80.299,392.567,90.37,376.188,92.546
			L376.188,92.546z"/>
		<path fill="#FFFFFF" d="M379.046,83.005c0.736-9.16,7.884-7.65,15.356-13.29C394.402,69.715,393.477,79.054,379.046,83.005
			L379.046,83.005z"/>
		<path fill="#FFFFFF" d="M380.159,72.978c0.28-9.184,7.495-8.02,14.678-14.012C394.837,58.966,394.376,68.338,380.159,72.978
			L380.159,72.978z"/>
		<path fill="#FFFFFF" d="M380.856,64.394c-0.84-8.681,6.093-8.425,12.14-14.904C392.996,49.49,393.687,58.37,380.856,64.394
			L380.856,64.394z"/>
		<path fill="#FFFFFF" d="M380.312,55.612c-2.068-7.276,3.885-8.102,8.032-14.538C388.344,41.074,390.316,48.542,380.312,55.612
			L380.312,55.612z"/>
		<path fill="#FFFFFF" d="M377.676,47.476c-2.174-6.936,3.521-7.88,7.336-14.165C385.012,33.311,387.101,40.433,377.676,47.476
			L377.676,47.476z"/>
		<path fill="#FFFFFF" d="M376.634,40.79c-2.685-5.52,1.947-6.999,4.338-12.705C380.972,28.085,383.608,33.771,376.634,40.79
			L376.634,40.79z"/>
		<path fill="#FFFFFF" d="M374.113,35.702c-3.324-4.458,0.536-6.536,1.688-11.996C375.801,23.706,379.109,28.319,374.113,35.702
			L374.113,35.702z"/>
		<path fill="#FFFFFF" d="M371.43,30.059c-3.83-3.077-1.007-5.686-1.25-10.589C370.181,19.47,374.035,22.683,371.43,30.059
			L371.43,30.059z"/>
		<path fill="#FFFFFF" d="M366.885,26.084c-4.232-2.519-1.808-5.491-2.746-10.312C364.138,15.773,368.412,18.422,366.885,26.084
			L366.885,26.084z"/>
	</g>
	<g>
		<path fill="#FFFFFF" d="M53.835,54.869h-6.197c-0.715,0-0.953-0.238-0.953-0.953V22.455c0-0.954,0.477-0.954,0.953-0.954h6.197
			c5.244,0,7.15,3.433,7.15,8.962c0,2.956-0.333,4.624-1.478,6.292c-0.191,0.286-0.334,0.477-0.334,0.62
			c0,0.143,0.096,0.333,0.334,0.715c1.049,1.859,1.478,4.004,1.478,7.246C60.986,52.486,58.603,54.869,53.835,54.869z
			 M56.219,29.843c-0.048-2.145-0.238-4.1-2.384-4.1h-1.43c-0.954,0-0.954,0-0.954,0.954v7.627c0,0.953,0,0.953,0.954,0.953h1.43
			c2.002,0,2.336-1.812,2.384-3.766V29.843z M53.835,50.626c2.384,0,2.384-2.431,2.384-4.862v-1.383c0-2.431,0-4.862-2.384-4.862
			h-1.43c-0.954,0-0.954,0-0.954,0.906v9.248c0,0.953,0,0.953,0.954,0.953H53.835z"/>
		<path fill="#FFFFFF" d="M65.37,53.916V22.455c0-0.715,0.238-0.954,0.953-0.954h10.058c0.715,0,0.954,0.239,0.954,0.954v2.574
			c0,0.715-0.239,0.953-0.954,0.953H71.09c-0.954,0-0.954,0-0.954,0.954v7.15c0,0.953,0,0.953,0.954,0.953h5.291
			c0.715,0,0.954,0.238,0.954,0.953v2.574c0,0.715-0.239,0.954-0.954,0.954H71.09c-0.954,0-0.954,0-0.954,0.953v8.962
			c0,0.953,0,0.953,0.954,0.953h5.291c0.715,0,0.954,0.238,0.954,0.954v2.574c0,0.715-0.239,0.953-0.954,0.953H66.323
			C65.847,54.869,65.37,54.869,65.37,53.916z"/>
	</g>
	<g>
		<path fill="#FFFFFF" d="M81.199,28.842c0-4.291,2.384-7.484,7.15-7.484c5.101,0,7.103,3.432,7.103,8.58
			c0,0.715-0.238,1.097-0.953,1.097h-2.812c-0.715,0-0.954-0.239-0.954-0.954c0-2.336-0.238-4.338-2.383-4.338
			c-2.383,0-2.383,2.336-2.383,3.289c0,2.383,1.716,5.005,4.195,7.722c2.765,3.003,5.291,6.579,5.291,10.773
			c0,4.29-2.383,7.484-7.15,7.484c-5.1,0-7.103-3.432-7.103-8.581c0-0.715,0.238-1.096,0.954-1.096h2.812
			c0.715,0,0.953,0.238,0.953,0.954c0,2.335,0.238,4.337,2.383,4.337c2.384,0,2.384-2.335,2.384-3.289
			c0-2.383-1.716-5.101-4.195-7.817C83.725,36.517,81.199,33.037,81.199,28.842z"/>
		<path fill="#FFFFFF" d="M99.884,21.501h12.394c0.715,0,0.954,0.239,0.954,0.954v2.574c0,0.715-0.238,0.953-0.954,0.953h-2.86
			c-0.954,0-0.954,0-0.954,0.954v26.98c0,0.953-0.477,0.953-0.953,0.953h-2.86c-0.477,0-0.953,0-0.953-0.953v-26.98
			c0-0.954,0-0.954-0.906-0.954h-2.908c-0.954,0-0.954-0.477-0.954-0.953v-2.574C98.931,21.978,98.931,21.501,99.884,21.501z"/>
	</g>
	<g>
		<path fill="#FFFFFF" d="M135.861,43.762h-1.43c-0.954,0-0.954,0-0.954,0.954v9.2c0,0.715-0.286,0.953-0.953,0.953h-2.86
			c-0.763,0-0.953-0.238-0.953-0.953V22.455c0-0.715,0.238-0.954,0.953-0.954h6.197c4.767,0,7.15,2.384,7.15,9.534v3.241
			C143.011,41.379,140.627,43.762,135.861,43.762z M133.477,38.662c0,0.858,0,0.858,0.954,0.858h1.43
			c2.383,0,2.383-2.431,2.383-4.862v-4.052c0-2.431,0-4.862-2.383-4.862h-1.43c-0.954,0-0.954,0-0.954,0.954V38.662z"/>
		<path fill="#FFFFFF" d="M159.074,41.188l2.479,12.68c0.143,0.763-0.19,1.001-0.572,1.001h-3.003c-0.62,0-0.905,0-1.048-0.715
			l-2.288-11.727h-1.525c-0.954,0-0.954,0-0.954,0.953v10.535c0,0.953-0.477,0.953-0.953,0.953h-2.86c-0.477,0-0.953,0-0.953-0.953
			V22.455c0-0.715,0.238-0.954,0.953-0.954h6.197c4.767,0,7.15,2.384,7.15,9.534v1.859C161.695,37.232,160.79,39.806,159.074,41.188
			z M152.162,37.232c0,0.953,0,0.953,0.954,0.953h1.43c2.383,0,2.383-2.431,2.383-4.862v-2.717c0-2.431,0-4.862-2.383-4.862h-1.43
			c-0.954,0-0.954,0-0.954,0.954V37.232z"/>
		<path fill="#FFFFFF" d="M166.08,53.916V22.455c0-0.715,0.238-0.954,0.953-0.954h2.86c0.715,0,0.953,0.239,0.953,0.954v31.461
			c0,0.953-0.477,0.953-0.953,0.953h-2.86C166.556,54.869,166.08,54.869,166.08,53.916z"/>
	</g>
	<g>
		<path fill="#FFFFFF" d="M190.75,21.501c0.477,0,0.954,0,0.811,0.811l-6.006,31.7c-0.143,0.715-0.286,0.858-1.049,0.858h-2.574
			c-0.763,0-0.906-0.143-1.049-0.858l-6.006-31.7c-0.143-0.811,0.333-0.811,0.811-0.811h2.86c0.62,0,0.906,0,1.049,0.715
			l3.432,20.545c0.047,0.238,0.333,0.238,0.381,0l3.432-20.545c0.143-0.715,0.429-0.715,1.049-0.715H190.75z"/>
		<path fill="#FFFFFF" d="M205.382,54.869c-0.619,0-0.905,0-1.049-0.715l-0.429-2.574c-0.19-0.954-0.19-0.954-1.049-0.954h-4.242
			c-0.954,0-0.906,0-1.097,0.954l-0.429,2.574c-0.143,0.715-0.429,0.715-1.049,0.715h-2.86c-0.477,0-0.954,0-0.811-0.811
			l6.006-31.699c0.143-0.715,0.286-0.858,1.048-0.858h2.574c0.763,0,0.905,0.143,1.049,0.858l6.006,31.699
			c0.143,0.811-0.334,0.811-0.811,0.811H205.382z M198.566,45.192c-0.143,0.954-0.143,0.954,0.81,0.954h2.67
			c0.953,0,0.953,0,0.81-0.954l-1.954-11.583c-0.048-0.238-0.334-0.238-0.381,0L198.566,45.192z"/>
	</g>
	<g>
		<path fill="#FFFFFF" d="M211.257,21.501h12.395c0.715,0,0.953,0.239,0.953,0.954v2.574c0,0.715-0.238,0.953-0.953,0.953h-2.86
			c-0.953,0-0.953,0-0.953,0.954v26.98c0,0.953-0.477,0.953-0.954,0.953h-2.859c-0.477,0-0.954,0-0.954-0.953v-26.98
			c0-0.954,0-0.954-0.905-0.954h-2.908c-0.953,0-0.953-0.477-0.953-0.953v-2.574C210.304,21.978,210.304,21.501,211.257,21.501z"/>
		<path fill="#FFFFFF" d="M228.654,53.916V22.455c0-0.715,0.238-0.954,0.954-0.954h10.058c0.715,0,0.953,0.239,0.953,0.954v2.574
			c0,0.715-0.238,0.953-0.953,0.953h-5.291c-0.953,0-0.953,0-0.953,0.954v7.15c0,0.953,0,0.953,0.953,0.953h5.291
			c0.715,0,0.953,0.238,0.953,0.953v2.574c0,0.715-0.238,0.954-0.953,0.954h-5.291c-0.953,0-0.953,0-0.953,0.953v8.962
			c0,0.953,0,0.953,0.953,0.953h5.291c0.715,0,0.953,0.238,0.953,0.954v2.574c0,0.715-0.238,0.953-0.953,0.953h-10.058
			C229.132,54.869,228.654,54.869,228.654,53.916z"/>
		<path fill="#FFFFFF" d="M256.825,53.916V22.455c0-0.715,0.238-0.954,0.954-0.954h2.859c0.716,0,0.954,0.239,0.954,0.954v31.461
			c0,0.953-0.477,0.953-0.954,0.953h-2.859C257.302,54.869,256.825,54.869,256.825,53.916z"/>
		<path fill="#FFFFFF" d="M265.643,28.842c0-4.291,2.384-7.484,7.15-7.484c5.101,0,7.103,3.432,7.103,8.58
			c0,0.715-0.238,1.097-0.953,1.097h-2.812c-0.715,0-0.953-0.239-0.953-0.954c0-2.336-0.238-4.338-2.384-4.338
			c-2.384,0-2.384,2.336-2.384,3.289c0,2.383,1.717,5.005,4.195,7.722c2.765,3.003,5.291,6.579,5.291,10.773
			c0,4.29-2.383,7.484-7.15,7.484c-5.101,0-7.103-3.432-7.103-8.581c0-0.715,0.238-1.096,0.953-1.096h2.812
			c0.716,0,0.954,0.238,0.954,0.954c0,2.335,0.238,4.337,2.383,4.337c2.384,0,2.384-2.335,2.384-3.289
			c0-2.383-1.716-5.101-4.195-7.817C268.169,36.517,265.643,33.037,265.643,28.842z"/>
		<path fill="#FFFFFF" d="M283.946,53.916V22.455c0-0.715,0.238-0.954,0.954-0.954h2.859c0.716,0,0.954,0.239,0.954,0.954v26.646
			c0,1.001,0,1.001,1.001,1.001h5.243c0.715,0,0.953,0.238,0.953,0.953v2.86c0,0.715-0.238,0.953-0.953,0.953H284.9
			C284.185,54.869,283.946,54.631,283.946,53.916z"/>
		<path fill="#FFFFFF" d="M312.309,54.869c-0.62,0-0.906,0-1.049-0.715l-0.429-2.574c-0.191-0.954-0.191-0.954-1.049-0.954h-4.243
			c-0.953,0-0.905,0-1.096,0.954l-0.43,2.574c-0.143,0.715-0.429,0.715-1.048,0.715h-2.86c-0.477,0-0.953,0-0.811-0.811
			l6.006-31.699c0.144-0.715,0.286-0.858,1.049-0.858h2.574c0.763,0,0.906,0.143,1.049,0.858l6.006,31.699
			c0.144,0.811-0.333,0.811-0.81,0.811H312.309z M305.492,45.192c-0.144,0.954-0.144,0.954,0.81,0.954h2.67
			c0.953,0,0.953,0,0.811-0.954l-1.955-11.583c-0.047-0.238-0.333-0.238-0.381,0L305.492,45.192z"/>
		<path fill="#FFFFFF" d="M331.041,54.297l-5.815-16.35c-0.096-0.333-0.381-0.238-0.381,0v15.969c0,0.715-0.238,0.953-0.954,0.953
			h-2.859c-0.716,0-0.954-0.238-0.954-0.953V22.455c0-0.715,0.238-0.954,0.954-0.954h2.621c0.524,0,0.763,0.096,0.954,0.62
			l5.815,16.541c0.095,0.286,0.381,0.238,0.381,0V22.455c0-0.715,0.238-0.954,0.953-0.954h2.86c0.715,0,0.953,0.239,0.953,0.954
			v31.461c0,0.715-0.238,0.953-0.953,0.953h-2.621C331.565,54.869,331.231,54.774,331.041,54.297z"/>
		<path fill="#FFFFFF" d="M340.335,22.455c0-0.715,0.238-0.954,0.954-0.954h6.196c4.768,0,7.15,2.384,7.15,9.534v14.3
			c0,7.15-2.383,9.534-7.15,9.534h-6.196c-0.716,0-0.954-0.238-0.954-0.953V22.455z M346.056,25.744c-0.953,0-0.953,0-0.953,0.954
			v22.928c0,1.001,0,1.001,0.953,1.001h1.43c2.384,0,2.384-2.431,2.384-4.862V30.606c0-2.431,0-4.862-2.384-4.862H346.056z"/>
	</g>
	<g>
		<path fill="#FFFFFF" d="M55.308,68.935v0.56c0,2.623-1.543,4.301-4.166,4.301h-2.874v4.34h-1.987V64.634h4.86
			C53.765,64.634,55.308,66.312,55.308,68.935z M53.302,69.205c0-1.813-0.791-2.739-2.256-2.739h-2.777v5.497h2.777
			C52.493,71.963,53.302,71.037,53.302,69.205z"/>
		<path fill="#FFFFFF" d="M70.01,76.322v1.812h-7.869V64.634h7.734v1.832h-5.729v3.896h4.783v1.794h-4.783v4.166H70.01z"/>
	</g>
	<g>
		<path fill="#FFFFFF" d="M86.603,76.649v1.562c-1.871,0.289-2.835,0.154-3.857-1.89l-1.755-3.414c-0.791,0-1.524-0.059-2.237-0.271
			v5.497h-2.006V64.634h4.783c2.623,0,4.282,1.64,4.282,3.8v0.694c0,1.658-1.042,3.047-2.758,3.549l1.755,3.259
			C85.33,76.9,86.043,76.804,86.603,76.649z M78.753,70.844c0.868,0.232,1.716,0.29,2.7,0.29c1.524,0,2.333-0.984,2.333-2.257
			v-0.212c0-1.292-0.81-2.199-2.256-2.199h-2.777V70.844z"/>
		<path fill="#FFFFFF" d="M95.056,66.466v4.359h4.783v1.812h-4.783v5.497H93.05V64.634h7.753v1.832H95.056z"/>
	</g>
	<g>
		<path fill="#FFFFFF" d="M115.338,76.322v1.812h-7.869V64.634h7.734v1.832h-5.728v3.896h4.783v1.794h-4.783v4.166H115.338z"/>
		<path fill="#FFFFFF" d="M126.336,78.404c-2.604,0-4.513-1.678-4.513-4.301v-5.438c0-2.623,1.909-4.301,4.513-4.301
			c1.736,0,2.72,0.521,3.761,1.292l-0.849,1.427c-0.907-0.559-1.562-0.926-2.913-0.926c-1.485,0-2.488,1.042-2.488,2.758v4.918
			c0,1.774,1.022,2.777,2.488,2.777c1.351,0,2.006-0.367,2.913-0.926l0.849,1.427C129.056,77.884,128.073,78.404,126.336,78.404z"/>
	</g>
	<g>
		<path fill="#FFFFFF" d="M145.471,66.447h-3.549v11.688h-2.025V66.447h-3.549v-1.813h9.123V66.447z"/>
		<path fill="#FFFFFF" d="M169.82,68.935v4.899c0,2.623-1.62,4.301-4.263,4.301h-4.764V64.634h4.764
			C168.2,64.634,169.82,66.312,169.82,68.935z M167.814,69.186c0-1.774-0.791-2.72-2.257-2.72h-2.758v9.837h2.758
			c1.446,0,2.257-0.926,2.257-2.72V69.186z"/>
		<path fill="#FFFFFF" d="M186.932,78.135h-2.218l-1.119-3.646c-1.504,0.251-3.009,0.251-4.513,0l-1.119,3.646h-2.199l4.609-13.501
			h1.91L186.932,78.135z M183.114,72.869l-1.794-5.824l-1.774,5.824C180.741,73.101,181.917,73.101,183.114,72.869z"/>
	</g>
	<g>
		<path fill="#FFFFFF" d="M200.984,64.634l-4.089,8.603v4.898h-2.025v-4.88l-4.108-8.621h2.218l2.913,6.519l2.874-6.519H200.984z"/>
	</g>
	<g>
		<path fill="#FFFFFF" d="M226.339,78.135h-2.218l-1.118-3.646c-1.505,0.251-3.01,0.251-4.514,0l-1.119,3.646h-2.198l4.609-13.501
			h1.909L226.339,78.135z M222.521,72.869l-1.794-5.824l-1.774,5.824C220.147,73.101,221.324,73.101,222.521,72.869z"/>
		<path fill="#FFFFFF" d="M239.634,66.447h-3.549v11.688h-2.025V66.447h-3.549v-1.813h9.123V66.447z"/>
	</g>
	<g>
		<path fill="#FFFFFF" d="M259.398,78.404c-2.604,0-4.514-1.678-4.514-4.301v-5.438c0-2.623,1.909-4.301,4.514-4.301
			c1.735,0,2.72,0.521,3.761,1.292l-0.849,1.427c-0.906-0.559-1.562-0.926-2.912-0.926c-1.485,0-2.488,1.042-2.488,2.758v4.918
			c0,1.774,1.022,2.777,2.488,2.777c1.35,0,2.006-0.367,2.912-0.926l0.849,1.427C262.118,77.884,261.134,78.404,259.398,78.404z"/>
		<path fill="#FFFFFF" d="M278.845,68.665v5.419c0,2.682-2.103,4.32-4.706,4.32s-4.706-1.639-4.706-4.32v-5.419
			c0-2.662,2.103-4.301,4.706-4.301S278.845,66.003,278.845,68.665z M271.438,68.916v4.918c0,1.812,1.215,2.758,2.7,2.758
			s2.681-0.945,2.681-2.758v-4.918c0-1.793-1.195-2.739-2.681-2.739S271.438,67.122,271.438,68.916z"/>
	</g>
	<g>
		<path fill="#FFFFFF" d="M290.244,78.404c-2.604,0-4.514-1.678-4.514-4.301v-5.438c0-2.623,1.909-4.301,4.514-4.301
			c1.735,0,2.72,0.521,3.761,1.292l-0.849,1.427c-0.906-0.559-1.562-0.926-2.912-0.926c-1.485,0-2.488,1.042-2.488,2.758v4.918
			c0,1.774,1.022,2.777,2.488,2.777c1.35,0,2.006-0.367,2.912-0.926l0.849,1.427C292.964,77.884,291.979,78.404,290.244,78.404z"/>
		<path fill="#FFFFFF" d="M309.69,68.665v5.419c0,2.682-2.103,4.32-4.706,4.32s-4.706-1.639-4.706-4.32v-5.419
			c0-2.662,2.103-4.301,4.706-4.301S309.69,66.003,309.69,68.665z M302.284,68.916v4.918c0,1.812,1.215,2.758,2.7,2.758
			s2.681-0.945,2.681-2.758v-4.918c0-1.793-1.195-2.739-2.681-2.739S302.284,67.122,302.284,68.916z"/>
	</g>
	<g>
		<path fill="#FFFFFF" d="M321.091,78.404c-2.604,0-4.514-1.678-4.514-4.301v-5.438c0-2.623,1.91-4.301,4.514-4.301
			c1.735,0,2.719,0.521,3.761,1.292l-0.849,1.427c-0.906-0.559-1.562-0.926-2.912-0.926c-1.485,0-2.488,1.042-2.488,2.758v4.918
			c0,1.774,1.022,2.777,2.488,2.777c1.35,0,2.006-0.367,2.912-0.926l0.849,1.427C323.81,77.884,322.826,78.404,321.091,78.404z"/>
		<path fill="#FFFFFF" d="M342.1,78.135h-2.218l-1.119-3.646c-1.504,0.251-3.008,0.251-4.513,0l-1.118,3.646h-2.199l4.609-13.501
			h1.91L342.1,78.135z M338.281,72.869l-1.794-5.824l-1.774,5.824C335.909,73.101,337.085,73.101,338.281,72.869z"/>
	</g>
	<g>
		<path fill="#FFFFFF" d="M356.167,64.634l-4.088,8.603v4.898h-2.025v-4.88l-4.108-8.621h2.218l2.912,6.519l2.874-6.519H356.167z"/>
	</g>
	<g>
		<path fill="#FFFFFF" d="M165.396,96.505v1.697h-6.847v-1.151c3.01-3.01,4.648-4.942,4.648-6.271c0-0.9-0.487-1.432-1.417-1.432
			c-0.988,0-1.682,0.296-2.435,0.724l-0.738-1.313c0.885-0.62,1.948-1.092,3.246-1.092c2.243,0,3.32,1.21,3.32,3.069
			c0,1.696-0.974,3.201-3.527,5.769H165.396z"/>
		<path fill="#FFFFFF" d="M170.707,87.667c2.036,0,3.423,1.254,3.423,3.305v4.132c0,2.051-1.387,3.306-3.423,3.306
			c-2.021,0-3.409-1.255-3.409-3.306v-4.132C167.298,88.921,168.685,87.667,170.707,87.667z M170.707,96.697
			c0.915,0,1.49-0.591,1.49-1.771v-3.777c0-1.166-0.576-1.771-1.49-1.771c-0.885,0-1.476,0.604-1.476,1.771v3.777
			C169.231,96.106,169.821,96.697,170.707,96.697z"/>
	</g>
	<g>
		<path fill="#FFFFFF" d="M182.793,96.239v1.963h-7.009v-1.328c2.656-2.582,4.471-4.736,4.471-6.005c0-0.826-0.487-1.255-1.24-1.255
			c-0.929,0-1.638,0.296-2.435,0.693l-0.826-1.534c0.93-0.635,2.066-1.106,3.364-1.106c2.302,0,3.467,1.21,3.467,3.157
			c0,1.594-0.767,3.011-3.158,5.415H182.793z"/>
		<path fill="#FFFFFF" d="M188.134,87.667c2.095,0,3.526,1.269,3.526,3.335v4.072c0,2.065-1.431,3.335-3.526,3.335
			c-2.081,0-3.512-1.27-3.512-3.335v-4.072C184.623,88.936,186.054,87.667,188.134,87.667z M188.134,96.432
			c0.752,0,1.239-0.517,1.239-1.535v-3.718c0-1.003-0.487-1.534-1.239-1.534c-0.723,0-1.225,0.531-1.225,1.534v3.718
			C186.91,95.915,187.411,96.432,188.134,96.432z"/>
		<path fill="#FFFFFF" d="M202.356,92.802v1.947h-4.707v-1.947H202.356z"/>
		<path fill="#FFFFFF" d="M215.487,96.239v1.963h-7.009v-1.328c2.656-2.582,4.471-4.736,4.471-6.005
			c0-0.826-0.486-1.255-1.239-1.255c-0.93,0-1.638,0.296-2.435,0.693l-0.826-1.534c0.93-0.635,2.065-1.106,3.364-1.106
			c2.302,0,3.468,1.21,3.468,3.157c0,1.594-0.768,3.011-3.158,5.415H215.487z"/>
		<path fill="#FFFFFF" d="M220.827,87.667c2.096,0,3.527,1.269,3.527,3.335v4.072c0,2.065-1.432,3.335-3.527,3.335
			c-2.08,0-3.512-1.27-3.512-3.335v-4.072C217.315,88.936,218.747,87.667,220.827,87.667z M220.827,96.432
			c0.753,0,1.24-0.517,1.24-1.535v-3.718c0-1.003-0.487-1.534-1.24-1.534c-0.723,0-1.225,0.531-1.225,1.534v3.718
			C219.603,95.915,220.104,96.432,220.827,96.432z"/>
	</g>
	<g>
		<path fill="#FFFFFF" d="M231.503,96.505v1.697h-6.847v-1.151c3.011-3.01,4.648-4.942,4.648-6.271c0-0.9-0.487-1.432-1.417-1.432
			c-0.988,0-1.682,0.296-2.435,0.724l-0.737-1.313c0.885-0.62,1.947-1.092,3.246-1.092c2.242,0,3.319,1.21,3.319,3.069
			c0,1.696-0.974,3.201-3.526,5.769H231.503z"/>
		<path fill="#FFFFFF" d="M240.179,95.029v0.236c0,1.801-1.21,3.144-3.453,3.144c-1.299,0-2.361-0.398-3.261-1.019l0.635-1.401
			c0.767,0.413,1.475,0.723,2.449,0.723c0.988,0,1.593-0.59,1.593-1.55c0-1.121-0.53-1.652-1.563-1.652h-1.077v-1.445h1.166
			c0.944,0,1.387-0.547,1.372-1.402c-0.015-0.797-0.428-1.328-1.313-1.328c-1.003,0-1.697,0.207-2.479,0.561l-0.531-1.312
			c0.914-0.561,1.844-0.915,3.143-0.915c2.169,0,3.113,1.299,3.113,2.922c0,0.708-0.28,1.549-1.003,2.095
			C239.706,93.097,240.179,94.203,240.179,95.029z"/>
	</g>
	<g>
		<path fill="#FFFFFF" d="M72.92,108.358l0.191-1.388h6.979l-0.192,1.388h-2.715L75.93,117.3H74.38l1.254-8.941H72.92z"/>
		<path fill="#FFFFFF" d="M84.221,109.479l-0.059,1.357c-0.915,0-1.83,0.442-2.435,1.106l-0.752,5.356H79.5l1.077-7.673h1.269
			l0.015,0.915C82.495,109.907,83.395,109.479,84.221,109.479z"/>
	</g>
	<g>
		<path fill="#FFFFFF" d="M89.379,117.3l0.015-0.753c-0.561,0.517-1.446,0.9-2.316,0.9c-1.417,0-2.331-0.561-2.331-1.859
			c0-1.977,1.209-2.567,3.128-2.567c0.62,0,1.225,0.074,1.815,0.207l0.118-0.856c0.162-1.18-0.251-1.593-1.358-1.593
			c-0.929,0-1.726,0.295-2.272,0.575l-0.325-1.062c0.693-0.384,1.771-0.812,2.98-0.812c1.918,0,2.73,0.93,2.479,2.744l-0.723,5.076
			H89.379z M87.476,116.252c0.767,0,1.476-0.384,1.918-0.944l0.148-1.048c-0.561-0.117-1.136-0.177-1.727-0.177
			c-1.062,0-1.549,0.28-1.549,1.254C86.266,116.016,86.752,116.252,87.476,116.252z"/>
		<path fill="#FFFFFF" d="M100.179,109.627l-3.821,7.673h-1.417l-1.653-7.673h1.549l1.092,5.888l2.7-5.888H100.179z"/>
		<path fill="#FFFFFF" d="M107.527,112.549l-0.192,1.372h-4.707l-0.044,0.354c-0.162,1.269,0.325,1.889,1.373,1.889
			c0.929,0,1.697-0.296,2.39-0.679l0.428,1.032c-0.767,0.517-1.771,0.93-3.01,0.93c-1.903,0-2.921-1.15-2.656-3.069l0.266-1.829
			c0.266-1.903,1.608-3.069,3.512-3.069C106.789,109.479,107.792,110.646,107.527,112.549z M104.708,110.764
			c-1.048,0-1.697,0.634-1.903,1.903l-0.03,0.177h3.246l0.03-0.177C106.258,111.412,105.756,110.764,104.708,110.764z"/>
		<path fill="#FFFFFF" d="M110.831,106.233h1.476l-1.549,11.066h-1.476L110.831,106.233z"/>
	</g>
	<g>
		<path fill="#FFFFFF" d="M124.863,117.3h-1.313l-0.9-4.072l-2.081,4.072h-1.328l-1.667-10.329h1.608l1.048,8.499l1.948-3.969
			l-1.033-4.53h1.417l0.531,2.833l1.357-2.833h1.402l-2.257,4.412l0.841,4.087l3.394-8.499h1.564L124.863,117.3z"/>
		<path fill="#FFFFFF" d="M135.826,112.549l-0.192,1.372h-4.707l-0.044,0.354c-0.162,1.269,0.325,1.889,1.373,1.889
			c0.929,0,1.697-0.296,2.39-0.679l0.428,1.032c-0.767,0.517-1.771,0.93-3.01,0.93c-1.903,0-2.921-1.15-2.656-3.069l0.266-1.829
			c0.266-1.903,1.608-3.069,3.512-3.069C135.088,109.479,136.091,110.646,135.826,112.549z M133.007,110.764
			c-1.048,0-1.697,0.634-1.903,1.903l-0.03,0.177h3.246l0.03-0.177C134.557,111.412,134.055,110.764,133.007,110.764z"/>
	</g>
	<g>
		<path fill="#FFFFFF" d="M144.317,112.549l-0.192,1.372h-4.707l-0.044,0.354c-0.162,1.269,0.325,1.889,1.373,1.889
			c0.929,0,1.697-0.296,2.39-0.679l0.428,1.032c-0.767,0.517-1.771,0.93-3.01,0.93c-1.903,0-2.921-1.15-2.656-3.069l0.266-1.829
			c0.266-1.903,1.608-3.069,3.512-3.069C143.58,109.479,144.583,110.646,144.317,112.549z M141.499,110.764
			c-1.048,0-1.697,0.634-1.903,1.903l-0.03,0.177h3.246l0.03-0.177C143.048,111.412,142.546,110.764,141.499,110.764z"/>
		<path fill="#FFFFFF" d="M152.609,116.179l-0.192,1.18c-1.46,0.222-2.081,0.089-2.686-1.445l-0.767-1.934l-1.092,1.077l-0.31,2.243
			h-1.476l1.549-11.066h1.476l-0.944,6.802l3.453-3.408h1.786l-3.276,3.202l1.166,2.804
			C151.591,116.355,152.167,116.297,152.609,116.179z"/>
		<path fill="#FFFFFF" d="M155.515,106.233h1.476l-1.549,11.066h-1.476L155.515,106.233z"/>
		<path fill="#FFFFFF" d="M161.653,116.267h0.015l-1.653,3.262h-1.52l1.357-2.538l-1.682-7.363h1.549l1.122,5.622l2.67-5.622h1.549
			L161.653,116.267z"/>
	</g>
	<g>
		<path fill="#FFFFFF" d="M177.021,116.164v1.194c-1.431,0.222-2.169,0.118-2.951-1.445l-1.343-2.612
			c-0.605,0-1.166-0.044-1.711-0.206v4.205h-1.535v-10.329h3.659c2.007,0,3.276,1.255,3.276,2.907v0.531
			c0,1.269-0.797,2.331-2.11,2.715l1.343,2.494C176.047,116.355,176.593,116.281,177.021,116.164z M171.016,111.723
			c0.664,0.177,1.313,0.221,2.066,0.221c1.166,0,1.785-0.752,1.785-1.727v-0.162c0-0.988-0.62-1.682-1.727-1.682h-2.125V111.723z"/>
		<path fill="#FFFFFF" d="M180.192,114.275c0,1.269,0.59,1.889,1.638,1.889c0.93,0,1.653-0.296,2.287-0.679l0.576,1.032
			c-0.694,0.517-1.638,0.93-2.877,0.93c-1.903,0-3.084-1.15-3.084-3.069v-1.829c0-1.903,1.181-3.069,3.084-3.069
			s3.069,1.166,3.069,3.069v1.372h-4.692V114.275z M183.424,112.844v-0.177c0-1.255-0.561-1.903-1.608-1.903
			c-1.047,0-1.638,0.634-1.638,1.903v0.177H183.424z"/>
	</g>
	<g>
		<path fill="#FFFFFF" d="M193.104,112.224v5.076h-1.21l-0.103-0.753c-0.487,0.517-1.313,0.9-2.184,0.9
			c-1.564,0-2.611-0.649-2.611-2.213c0-1.727,1.092-2.214,2.789-2.214c0.62,0,1.239,0.074,1.844,0.207v-0.856
			c0-1.18-0.487-1.593-1.593-1.593c-0.93,0-1.682,0.295-2.184,0.575l-0.472-1.062c0.635-0.384,1.653-0.812,2.863-0.812
			C192.159,109.479,193.104,110.409,193.104,112.224z M191.628,115.322v-1.062c-0.59-0.117-1.166-0.177-1.756-0.177
			c-0.915,0-1.387,0.222-1.387,1.077c0,0.826,0.561,1.092,1.357,1.092C190.61,116.252,191.259,115.868,191.628,115.322z"/>
		<path fill="#FFFFFF" d="M201.676,106.233V117.3h-1.166l-0.104-0.708c-0.517,0.517-1.254,0.855-2.139,0.855
			c-1.771,0-2.685-1.15-2.685-3.069v-1.947c0-1.903,0.885-2.951,2.611-2.951c0.679,0,1.343,0.104,2.007,0.398v-3.645H201.676z
			 M200.2,115.249v-4.072c-0.576-0.28-1.166-0.369-1.756-0.369c-0.974,0-1.417,0.59-1.417,1.8v1.608c0,1.27,0.413,1.933,1.461,1.933
			C199.285,116.148,199.86,115.824,200.2,115.249z"/>
		<path fill="#FFFFFF" d="M205.614,114.275c0,1.269,0.59,1.889,1.638,1.889c0.93,0,1.652-0.296,2.287-0.679l0.575,1.032
			c-0.693,0.517-1.638,0.93-2.877,0.93c-1.904,0-3.084-1.15-3.084-3.069v-1.829c0-1.903,1.18-3.069,3.084-3.069
			c1.903,0,3.068,1.166,3.068,3.069v1.372h-4.691V114.275z M208.845,112.844v-0.177c0-1.255-0.561-1.903-1.607-1.903
			c-1.048,0-1.639,0.634-1.639,1.903v0.177H208.845z"/>
	</g>
	<g>
		<path fill="#FFFFFF" d="M214.213,111.929v5.371h-1.476v-7.673h1.27l0.147,0.915c0.546-0.635,1.387-1.062,2.213-1.062l0.118,1.357
			C215.57,110.837,214.744,111.279,214.213,111.929z"/>
		<path fill="#FFFFFF" d="M221.044,116.223c1.048,0,1.564-0.487,1.564-1.062c0-0.693-0.531-0.93-1.668-1.121
			c-1.283-0.222-2.522-0.502-2.522-2.347c0-1.283,0.87-2.213,2.744-2.213c1.21,0,2.007,0.369,2.773,0.915l-0.561,1.003
			c-0.664-0.398-1.283-0.693-2.169-0.693c-0.974,0-1.328,0.413-1.328,0.959c0,0.826,0.649,0.944,1.668,1.106
			c1.269,0.207,2.508,0.517,2.522,2.347c0.016,1.313-1.047,2.331-2.966,2.331c-1.239,0-2.228-0.413-2.936-0.915l0.561-1.032
			C219.362,115.913,220.114,116.223,221.044,116.223z"/>
	</g>
	<g>
		<path fill="#FFFFFF" d="M226.155,107.975c-0.295-0.147-0.458-0.442-0.458-0.782c0-0.649,0.443-0.93,0.96-0.93
			c0.531,0,0.988,0.28,0.988,0.944c0,0.797-0.442,1.785-1.785,2.214l-0.354-0.679C225.786,108.564,226.111,108.299,226.155,107.975z
			"/>
		<path fill="#FFFFFF" d="M237.059,117.507c-1.992,0-3.453-1.284-3.453-3.291v-4.161c0-2.007,1.461-3.29,3.453-3.29
			c1.327,0,2.08,0.398,2.877,0.988l-0.649,1.092c-0.693-0.428-1.195-0.708-2.228-0.708c-1.137,0-1.903,0.797-1.903,2.11v3.763
			c0,1.357,0.781,2.124,1.903,2.124c1.032,0,1.534-0.28,2.228-0.708l0.649,1.092C239.139,117.108,238.386,117.507,237.059,117.507z"
			/>
		<path fill="#FFFFFF" d="M248.036,112.269v5.031h-1.461v-4.84c0-1.15-0.354-1.667-1.357-1.667c-0.679,0-1.328,0.472-1.712,0.974
			v5.533h-1.476v-11.066h1.476v4.146c0.531-0.531,1.254-0.9,2.007-0.9C247.298,109.479,248.036,110.453,248.036,112.269z"/>
		<path fill="#FFFFFF" d="M253.583,109.479c1.903,0,3.068,1.151,3.068,3.069v1.829c0,1.919-1.18,3.069-3.068,3.069
			c-1.904,0-3.084-1.15-3.084-3.069v-1.829C250.499,110.631,251.679,109.479,253.583,109.479z M253.583,116.148
			c1.032,0,1.607-0.663,1.607-1.933v-1.505c0-1.269-0.575-1.933-1.607-1.933c-1.048,0-1.623,0.664-1.623,1.933v1.505
			C251.96,115.485,252.535,116.148,253.583,116.148z"/>
		<path fill="#FFFFFF" d="M259.854,108.388c-0.576,0-0.975-0.31-0.975-0.915c0-0.604,0.398-0.93,0.975-0.93
			c0.561,0,0.974,0.325,0.974,0.93C260.827,108.078,260.414,108.388,259.854,108.388z M260.605,117.3h-1.476v-7.673h1.476V117.3z"/>
	</g>
	<g>
		<path fill="#FFFFFF" d="M266.052,116.148c0.93,0,1.476-0.28,2.109-0.663l0.591,1.032c-0.693,0.517-1.505,0.93-2.745,0.93
			c-1.903,0-3.068-1.166-3.068-3.069v-1.829c0-1.903,1.165-3.069,3.068-3.069c1.27,0,1.978,0.384,2.745,0.944l-0.605,1.019
			c-0.664-0.413-1.121-0.664-2.095-0.664c-1.077,0-1.652,0.664-1.652,1.947v1.476C264.399,115.485,264.975,116.148,266.052,116.148z
			"/>
		<path fill="#FFFFFF" d="M272.247,114.275c0,1.269,0.591,1.889,1.639,1.889c0.93,0,1.652-0.296,2.287-0.679l0.575,1.032
			c-0.693,0.517-1.638,0.93-2.877,0.93c-1.904,0-3.084-1.15-3.084-3.069v-1.829c0-1.903,1.18-3.069,3.084-3.069
			c1.903,0,3.068,1.166,3.068,3.069v1.372h-4.692V114.275z M275.479,112.844v-0.177c0-1.255-0.561-1.903-1.607-1.903
			c-1.048,0-1.639,0.634-1.639,1.903v0.177H275.479z"/>
	</g>
	<g>
		<path fill="#FFFFFF" d="M290.919,117.3h-1.697l-0.855-2.789c-1.151,0.192-2.302,0.192-3.453,0l-0.855,2.789h-1.683l3.527-10.329
			h1.46L290.919,117.3z M287.997,113.271l-1.372-4.456l-1.357,4.456C286.183,113.448,287.082,113.448,287.997,113.271z"/>
		<path fill="#FFFFFF" d="M301.423,109.627l-2.582,7.673h-1.416l-1.019-3.453l-1.121,3.453h-1.402l-2.582-7.673h1.55l1.756,5.888
			l1.181-3.807l-0.62-2.081h1.564l1.431,5.873l1.712-5.873H301.423z"/>
	</g>
	<g>
		<path fill="#FFFFFF" d="M309.095,112.224v5.076h-1.21l-0.104-0.753c-0.486,0.517-1.312,0.9-2.184,0.9
			c-1.563,0-2.611-0.649-2.611-2.213c0-1.727,1.092-2.214,2.788-2.214c0.62,0,1.24,0.074,1.845,0.207v-0.856
			c0-1.18-0.486-1.593-1.594-1.593c-0.93,0-1.682,0.295-2.184,0.575l-0.472-1.062c0.634-0.384,1.652-0.812,2.862-0.812
			C308.15,109.479,309.095,110.409,309.095,112.224z M307.619,115.322v-1.062c-0.59-0.117-1.165-0.177-1.756-0.177
			c-0.915,0-1.387,0.222-1.387,1.077c0,0.826,0.561,1.092,1.357,1.092C306.602,116.252,307.25,115.868,307.619,115.322z"/>
		<path fill="#FFFFFF" d="M313.151,111.929v5.371h-1.476v-7.673h1.27l0.147,0.915c0.546-0.635,1.387-1.062,2.213-1.062l0.118,1.357
			C314.509,110.837,313.683,111.279,313.151,111.929z"/>
		<path fill="#FFFFFF" d="M323.244,106.233V117.3h-1.166l-0.103-0.708c-0.517,0.517-1.255,0.855-2.14,0.855
			c-1.771,0-2.686-1.15-2.686-3.069v-1.947c0-1.903,0.885-2.951,2.611-2.951c0.679,0,1.343,0.104,2.007,0.398v-3.645H323.244z
			 M321.769,115.249v-4.072c-0.575-0.28-1.166-0.369-1.756-0.369c-0.974,0-1.416,0.59-1.416,1.8v1.608
			c0,1.27,0.413,1.933,1.46,1.933C320.854,116.148,321.429,115.824,321.769,115.249z"/>
		<path fill="#FFFFFF" d="M328.378,116.223c1.048,0,1.564-0.487,1.564-1.062c0-0.693-0.531-0.93-1.668-1.121
			c-1.283-0.222-2.522-0.502-2.522-2.347c0-1.283,0.87-2.213,2.744-2.213c1.21,0,2.007,0.369,2.773,0.915l-0.561,1.003
			c-0.664-0.398-1.283-0.693-2.169-0.693c-0.974,0-1.328,0.413-1.328,0.959c0,0.826,0.649,0.944,1.668,1.106
			c1.269,0.207,2.508,0.517,2.522,2.347c0.016,1.313-1.047,2.331-2.966,2.331c-1.239,0-2.228-0.413-2.936-0.915l0.561-1.032
			C326.696,115.913,327.448,116.223,328.378,116.223z"/>
	</g>
</g>
</svg>
